<?xml version="1.0" encoding="UTF-8" standalone="no"?>
<svg width="217px" height="115px" viewBox="0 0 217 115" version="1.1" xmlns="http://www.w3.org/2000/svg" xmlns:xlink="http://www.w3.org/1999/xlink">
    <!-- Generator: Sketch 3.8.3 (29802) - http://www.bohemiancoding.com/sketch -->
    <title>venturelab</title>
    <desc>Created with Sketch.</desc>
    <defs></defs>
    <g id="Page-1" stroke="none" stroke-width="1" fill="none" fill-rule="evenodd">
        <g id="venturelab">
            <g id="Symbols">
                <g>
                    <g>
                        <g id="logo-VentureLab">
                            <g id="venturelab">
                                <path d="M24.0837777,35.1148268 C23.9185358,35.0461142 23.7455136,35.0115701 23.5695273,35.0115701 C23.0015547,35.0115701 22.4965667,35.3678996 22.2787142,35.931869 L12.4345976,63.9696314 L2.64568508,35.9555241 C2.48266621,35.3908038 1.9806422,35.0115701 1.39636775,35.0115701 C1.22705043,35.0115701 1.06032659,35.0438613 0.900271698,35.1069418 C0.56163705,35.2165816 0.290062436,35.4561372 0.134083019,35.7835548 C-0.0304178388,36.1282444 -0.0430147513,36.5352636 0.0936987993,36.88521 L11.1949132,68.5962828 C11.4249921,69.145233 11.8881139,69.4730261 12.4338566,69.4730261 C12.9947897,69.4730261 13.5001482,69.1283364 13.7294861,68.5718766 L24.8781242,36.8634322 C25.0952357,36.1214858 24.7269612,35.3326046 24.0837777,35.1148268" id="Fill-1" fill="#1D1C1B"></path>
                                <path d="M42.9505811,54.5407548 L42.9505811,55.8342797 L31.2821352,55.8342797 L31.2821352,54.4893142 C31.2821352,52.5296897 31.6933873,51.089728 32.5036652,50.2103563 C33.3721111,49.2712835 34.7948213,48.7673908 36.8529345,48.6701418 C39.1400151,48.6716437 40.7809482,49.1901801 41.7216412,50.2020958 C42.5600768,51.1569387 42.9505811,52.5356973 42.9505811,54.5407548 M36.77513,45.8664406 L36.771425,45.8664406 C33.9419362,46.0275211 31.8434388,46.8445632 30.5344714,48.2950383 C29.1921592,49.7838123 28.5397132,51.8098966 28.5397132,54.4893142 L28.5397132,60.8476743 C28.5397132,63.5815364 29.1940117,65.6094981 30.5303959,67.0374444 C31.9468075,68.6535057 34.2709379,69.4731762 37.4375794,69.4731762 C39.8480357,69.4731762 41.9661695,69.1206015 43.7386292,68.4237126 C44.4633221,68.1274598 44.8086257,67.3213065 44.5244542,66.5876207 C44.3166051,66.0551916 43.836811,65.7243946 43.2725434,65.7243946 C43.0861832,65.7243946 42.9016755,65.761567 42.7316172,65.8314061 C41.3055726,66.3867395 39.5242209,66.6683487 37.4375794,66.6683487 C35.1134491,66.6683487 33.4532501,66.1494368 32.5040357,65.1270077 C31.6933873,64.247636 31.2821352,62.8076743 31.2821352,60.8476743 L31.2821352,58.6391073 L44.3210511,58.6391073 C45.0520425,58.6391073 45.6930031,57.9838966 45.6930031,57.2366935 L45.6930031,54.5407548 C45.6930031,51.7494444 45.0368521,49.7196054 43.7026909,48.3521111 C42.2577509,46.7026322 39.9354731,45.8664406 36.77513,45.8664406" id="Fill-3" fill="#1D1C1B"></path>
                                <path d="M60.8589077,45.8658774 C58.5481153,45.8658774 56.5352027,46.2413563 54.7282868,47.0110881 C54.6034292,46.3772797 54.0280467,45.8658774 53.3830106,45.8658774 C52.6260844,45.8658774 52.0106882,46.4940536 52.0106882,47.2664138 L52.0106882,68.0705747 C52.0106882,68.8703448 52.6005201,69.4729885 53.3830106,69.4729885 C54.1384549,69.4729885 54.7534806,68.8436858 54.7534806,68.0705747 L54.7534806,50.0667356 C54.8809317,50.0017778 54.9783726,49.9608506 54.9798545,49.9604751 L55.0213503,49.9409502 C56.5948528,49.0856092 58.5043966,48.669954 60.8589077,48.669954 C63.1096796,48.669954 64.6820707,49.1828582 65.5457002,50.2101686 C66.3548666,51.0861609 66.7653777,52.5430192 66.7653777,54.5409425 L66.7653777,68.0705747 C66.7653777,68.8703448 67.3555801,69.4729885 68.1377002,69.4729885 C68.878695,69.4729885 69.4585235,68.8568276 69.4585235,68.0705747 L69.4585235,54.5409425 C69.4585235,51.8558927 68.8234909,49.6987663 67.6186333,48.2993563 C66.2014806,46.6844215 63.9273674,45.8658774 60.8589077,45.8658774" id="Fill-5" fill="#1D1C1B"></path>
                                <path d="M86.2558765,66.6169456 L86.1951149,66.6169456 C86.045434,66.6169456 82.4979211,66.5902866 80.1745317,64.2499264 C78.7147719,62.7994513 77.9741475,60.6963939 77.9741475,57.9997042 L77.9741475,48.6187387 L84.1310738,48.6187387 C84.8868885,48.6187387 85.5015437,47.9898115 85.5015437,47.2170759 C85.5015437,46.4432138 84.8868885,45.8135356 84.1310738,45.8135356 L77.9741475,45.8135356 L77.9741475,37.3483632 C77.9741475,36.5887693 77.3694957,35.9470759 76.6533242,35.9470759 C75.8975094,35.9470759 75.2828542,36.5756276 75.2828542,37.3483632 L75.2828542,57.9997042 C75.2828542,61.478892 76.2920892,64.2529303 78.2816604,66.2437195 C81.2786141,69.2685778 85.4137358,69.4217732 86.2121578,69.4217732 L86.262175,69.4217732 C87.0168782,69.4217732 87.630422,68.7924705 87.630422,68.0189839 C87.630422,67.2458728 87.0168782,66.6169456 86.2558765,66.6169456" id="Fill-7" fill="#1D1C1B"></path>
                                <path d="M107.353964,45.8658774 C106.598149,45.8658774 105.983494,46.4940536 105.983494,47.2664138 L105.983494,65.2589885 L105.715254,65.3971648 C104.143603,66.2525057 102.23443,66.6681609 99.8780666,66.6681609 C97.6391506,66.6681609 96.0478642,66.1518774 95.1497784,65.1358314 C94.3650648,64.2369349 93.9675211,62.7766973 93.9675211,60.7964215 L93.9675211,47.2664138 C93.9675211,46.5203372 93.3280425,45.8658774 92.5989036,45.8658774 C91.8679122,45.8658774 91.2265811,46.5203372 91.2265811,47.2664138 L91.2265811,60.7964215 C91.2265811,63.5404215 91.8642072,65.641977 93.1179705,67.0376322 C94.5347527,68.653318 96.8092364,69.4729885 99.8780666,69.4729885 C102.184784,69.4729885 104.196585,69.0978851 106.004242,68.3281533 C106.116132,68.9965057 106.659281,69.4729885 107.353964,69.4729885 C108.110519,69.4729885 108.726286,68.8436858 108.726286,68.0705747 L108.726286,47.2664138 C108.726286,46.5203372 108.084955,45.8658774 107.353964,45.8658774" id="Fill-9" fill="#1D1C1B"></path>
                                <path d="M124.525111,45.867492 L123.891931,45.86599 C121.58188,45.86599 119.569708,46.240718 117.763533,47.0104498 C117.645345,46.3601203 117.085894,45.86599 116.415664,45.86599 C115.685043,45.86599 115.043712,46.5200743 115.043712,47.2665264 L115.043712,68.0703119 C115.043712,68.8437985 115.659108,69.4731011 116.415664,69.4731011 C117.197413,69.4731011 117.786504,68.870082 117.786504,68.0703119 L117.786504,50.0784881 C117.949153,49.9955073 118.048075,49.9444421 118.049557,49.9433157 C119.695678,49.0744575 121.55187,48.6696912 123.891931,48.6696912 L124.436563,48.6696912 C125.173482,48.6696912 125.79777,48.0621663 125.808885,47.3386184 C125.866683,46.5715149 125.318346,45.9410858 124.525111,45.867492" id="Fill-11" fill="#1D1C1B"></path>
                                <path d="M143.61514,54.5407548 L143.61514,55.8342797 L131.947064,55.8342797 L131.947064,54.4893142 C131.947064,52.5281877 132.357575,51.0882261 133.166371,50.2107318 C134.036299,49.2712835 135.45975,48.7673908 137.517493,48.6701418 C139.804944,48.6716437 141.445877,49.1901801 142.3862,50.2017203 C143.21315,51.1456743 143.61514,52.5649847 143.61514,54.5407548 M137.437836,45.8664406 L137.433761,45.8664406 C134.606124,46.0275211 132.508368,46.8445632 131.19903,48.2950383 C129.856718,49.7834368 129.204272,51.8098966 129.204272,54.4893142 L129.204272,60.8476743 C129.204272,63.5815364 129.8582,65.6098736 131.194954,67.037069 C132.609884,68.6535057 134.933644,69.4731762 138.102138,69.4731762 C140.510742,69.4731762 142.628875,69.1206015 144.403558,68.4233372 C145.117136,68.1304636 145.468368,67.3070383 145.187531,66.5887471 C144.984869,66.0634521 144.493589,65.7243946 143.936361,65.7243946 C143.74963,65.7243946 143.565122,65.761567 143.393953,65.8314061 C141.970131,66.3867395 140.18952,66.6683487 138.102138,66.6683487 C135.778749,66.6683487 134.117809,66.1490613 133.167112,65.1270077 C132.357575,64.2487625 131.947064,62.8091762 131.947064,60.8476743 L131.947064,58.6391073 L144.98561,58.6391073 C145.71586,58.6391073 146.35608,57.9838966 146.35608,57.2366935 L146.35608,54.5407548 C146.35608,51.7501954 145.70067,49.7203563 144.366879,48.3521111 C142.92268,46.7026322 140.599661,45.8664406 137.437836,45.8664406" id="Fill-13" fill="#1D1C1B"></path>
                                <path d="M170.881824,66.6682736 L155.41615,66.6682736 L155.41615,36.4335839 C155.41615,35.6604728 154.801494,35.0319211 154.04605,35.0319211 C153.263189,35.0319211 152.673357,35.6345648 152.673357,36.4335839 L152.673357,68.0703119 C152.673357,68.8437985 153.289124,69.4731011 154.04605,69.4731011 L170.881824,69.4731011 C171.612074,69.4731011 172.252294,68.8178904 172.252294,68.0703119 C172.252294,67.2972008 171.637638,66.6682736 170.881824,66.6682736" id="Fill-15" fill="#1D1C1B"></path>
                                <path d="M188.570519,65.0424123 C187.4242,66.0299218 185.337188,66.668236 183.253511,66.668236 C182.063103,66.668236 180.97347,66.4692322 180.104653,66.0937533 C178.299219,65.3041211 177.494128,63.9058375 177.494128,61.5594697 C177.494128,60.3365349 177.804235,59.4932092 178.487802,58.8349946 C179.560392,57.874895 181.447336,57.367623 183.9456,57.367623 C184.392049,57.367623 184.813675,57.367623 185.259754,57.4179372 C186.835109,57.5050483 188.266711,57.7457303 189.160722,57.9071862 L189.160722,64.3139831 C189.042533,64.5550406 188.827274,64.8216307 188.570519,65.0424123 M183.549909,45.8659525 C181.260605,45.8659525 179.276221,46.1832322 177.628989,46.8192935 C176.983212,47.1140444 176.640502,47.9017992 176.848351,48.6125808 L176.867247,48.6643969 C177.088804,49.1746728 177.589346,49.5039678 178.142499,49.5039678 C178.320708,49.5039678 178.495212,49.4690483 178.650451,49.4052169 C179.932372,48.9174697 181.580715,48.6700291 183.549909,48.6700291 C185.772893,48.6700291 187.257106,49.1070866 188.08665,50.0056077 C188.80949,50.792236 189.160722,52.0260598 189.160722,53.777669 L189.160722,55.0790789 C188.199281,54.8984736 186.89476,54.7005962 185.459823,54.6138605 C181.421401,54.3547801 178.452976,55.0959755 176.622718,56.814918 C175.380811,57.9792782 174.751336,59.5754391 174.751336,61.5594697 C174.751336,64.9872169 176.186272,67.3801441 179.025765,68.6759218 C180.265079,69.2049716 181.687418,69.4730636 183.253511,69.4730636 C185.376091,69.4730636 187.522753,68.9278682 189.160722,67.9917992 L189.160722,68.0702743 C189.160722,68.8178529 189.800571,69.4730636 190.530821,69.4730636 C191.287748,69.4730636 191.903144,68.8437609 191.903144,68.0702743 L191.903144,53.777669 C191.903144,51.2262897 191.295528,49.3624123 190.051768,48.0854084 C188.669442,46.6127801 186.481655,45.8659525 183.549909,45.8659525" id="Fill-17" fill="#1D1C1B"></path>
                                <path d="M207.170305,66.6682736 C205.040686,66.6682736 203.140775,66.2496146 201.350161,65.3818828 C201.347568,65.3807563 201.161949,65.2974 200.963362,65.1584728 L200.963362,50.2204192 C201.015973,50.1851241 201.084515,50.1438215 201.174175,50.098013 L201.406477,49.9275456 C203.069269,49.0815916 204.955101,48.6696912 207.170305,48.6696912 C209.387732,48.6696912 210.943822,49.1829709 211.807451,50.2099057 C212.594758,51.0641203 212.977482,52.4808023 212.977482,54.5406797 L212.977482,60.7961586 C212.977482,62.8564115 212.594758,64.272718 211.793743,65.1423272 C210.943822,66.1549939 209.387732,66.6682736 207.170305,66.6682736 M213.834072,48.3580437 C212.467307,46.7378521 210.225427,45.9163042 207.170305,45.9163042 C204.786895,45.9163042 202.794731,46.2921586 200.963362,47.0938061 L200.963362,37.3996912 C200.963362,36.6528636 200.323513,35.9972774 199.593262,35.9972774 C198.836336,35.9972774 198.22094,36.6265801 198.22094,37.3996912 L198.22094,68.0703119 C198.22094,68.870082 198.810772,69.4731011 199.593262,69.4731011 C200.293132,69.4731011 200.87222,68.9331625 200.953729,68.2389019 C202.819554,69.0581969 204.907678,69.4731011 207.170305,69.4731011 C210.224686,69.4731011 212.466566,68.6515533 213.82518,67.0414996 C215.082648,65.6417142 215.720274,63.5405341 215.720274,60.7961586 L215.720274,54.5406797 C215.720274,51.8289709 215.082648,49.7454383 213.834072,48.3580437" id="Fill-19" fill="#1D1C1B"></path>
                                <path d="M215.141039,78.5889785 C215.141039,79.5231701 214.410788,80.2816375 213.511221,80.2816375 L2.09130978,80.2816375 C1.18914854,80.2816375 0.461121098,79.5231701 0.461121098,78.5889785 C0.461121098,77.6536605 1.18914854,76.8959441 2.09130978,76.8959441 L213.511221,76.8959441 C214.410788,76.8959441 215.141039,77.6536605 215.141039,78.5889785" id="Fill-21" fill="#D3007E"></path>
                                <path d="M0.63499554,94.4225494 C0.509026415,94.3834996 0.445671355,94.2532084 0.481980103,94.1232927 C0.520141338,93.9922506 0.648333448,93.914151 0.774302573,93.9539517 C1.92877256,94.3189172 3.45003499,94.4097831 4.27365077,93.7970015 C4.66526655,93.4977448 4.84310532,93.0678215 4.84310532,92.4816989 C4.84310532,91.1525034 3.83016535,90.7098138 2.73905043,90.2536069 C1.69943465,89.7977755 0.610172213,89.3291778 0.610172213,88.0266414 C0.610172213,87.4795686 0.799496398,87.0492697 1.16814134,86.7229785 C2.11809674,85.9029326 4.00615163,86.1372314 4.75529743,86.2667716 C4.89460446,86.2934307 4.98241235,86.4237218 4.95758902,86.5536375 C4.93313619,86.6843042 4.80494408,86.7755456 4.69231286,86.7488866 C4.14545866,86.6580207 2.29556501,86.3978138 1.48343465,87.1007103 C1.21778799,87.3226184 1.09181887,87.6230015 1.09181887,88.0266414 C1.09181887,89.0032621 1.94025798,89.3674766 2.9302271,89.7977755 C4.05765077,90.2798904 5.31326655,90.8269632 5.31326655,92.4816989 C5.31326655,93.2236452 5.05910532,93.7970015 4.55263533,94.1882506 C4.03282744,94.5918904 3.31035746,94.7353234 2.58788748,94.7353234 C1.90209674,94.7353234 1.20630257,94.6042812 0.63499554,94.4225494" id="Fill-23" fill="#1B1B19"></path>
                                <path d="M0.63499554,94.4225494 C0.509026415,94.3834996 0.445671355,94.2532084 0.481980103,94.1232927 C0.520141338,93.9922506 0.648333448,93.914151 0.774302573,93.9539517 C1.92877256,94.3189172 3.45003499,94.4097831 4.27365077,93.7970015 C4.66526655,93.4977448 4.84310532,93.0678215 4.84310532,92.4816989 C4.84310532,91.1525034 3.83016535,90.7098138 2.73905043,90.2536069 C1.69943465,89.7977755 0.610172213,89.3291778 0.610172213,88.0266414 C0.610172213,87.4795686 0.799496398,87.0492697 1.16814134,86.7229785 C2.11809674,85.9029326 4.00615163,86.1372314 4.75529743,86.2667716 C4.89460446,86.2934307 4.98241235,86.4237218 4.95758902,86.5536375 C4.93313619,86.6843042 4.80494408,86.7755456 4.69231286,86.7488866 C4.14545866,86.6580207 2.29556501,86.3978138 1.48343465,87.1007103 C1.21778799,87.3226184 1.09181887,87.6230015 1.09181887,88.0266414 C1.09181887,89.0032621 1.94025798,89.3674766 2.9302271,89.7977755 C4.05765077,90.2798904 5.31326655,90.8269632 5.31326655,92.4816989 C5.31326655,93.2236452 5.05910532,93.7970015 4.55263533,94.1882506 C4.03282744,94.5918904 3.31035746,94.7353234 2.58788748,94.7353234 C1.90209674,94.7353234 1.20630257,94.6042812 0.63499554,94.4225494 L0.63499554,94.4225494 L0.63499554,94.4225494 Z" id="Stroke-25" stroke="#1D1C1B" stroke-width="0.66"></path>
                                <path d="M10.7634319,94.4746284 C10.7634319,94.6045441 10.6622861,94.7224444 10.5226086,94.7224444 L10.5111232,94.7224444 C10.3466223,94.7224444 9.30737702,94.6965364 8.55823122,93.9403218 C8.06509914,93.4454406 7.82427581,92.7684521 7.82427581,91.9086054 L7.82427581,89.1469579 L7.82427581,86.6196092 C7.82427581,86.488567 7.92542161,86.3714176 8.06509914,86.3714176 C8.19106827,86.3714176 8.29258456,86.488567 8.29258456,86.6196092 L8.29258456,88.8987663 L9.97797736,88.8987663 C10.1172844,88.8987663 10.2188007,89.0162912 10.2188007,89.1469579 C10.2188007,89.2764981 10.1172844,89.394023 9.97797736,89.394023 L8.29258456,89.394023 L8.29258456,91.9086054 C8.29258456,92.6250192 8.49487616,93.198751 8.88871492,93.5888736 C9.53486244,94.2403295 10.5111232,94.2268123 10.5111232,94.2268123 L10.5226086,94.2268123 C10.6508007,94.2268123 10.7634319,94.3315709 10.7634319,94.4746284" id="Fill-27" fill="#1B1B19"></path>
                                <path d="M10.7634319,94.4746284 C10.7634319,94.6045441 10.6622861,94.7224444 10.5226086,94.7224444 L10.5111232,94.7224444 C10.3466223,94.7224444 9.30737702,94.6965364 8.55823122,93.9403218 C8.06509914,93.4454406 7.82427581,92.7684521 7.82427581,91.9086054 L7.82427581,89.1469579 L7.82427581,86.6196092 C7.82427581,86.488567 7.92542161,86.3714176 8.06509914,86.3714176 C8.19106827,86.3714176 8.29258456,86.488567 8.29258456,86.6196092 L8.29258456,88.8987663 L9.97797736,88.8987663 C10.1172844,88.8987663 10.2188007,89.0162912 10.2188007,89.1469579 C10.2188007,89.2764981 10.1172844,89.394023 9.97797736,89.394023 L8.29258456,89.394023 L8.29258456,91.9086054 C8.29258456,92.6250192 8.49487616,93.198751 8.88871492,93.5888736 C9.53486244,94.2403295 10.5111232,94.2268123 10.5111232,94.2268123 L10.5226086,94.2268123 C10.6508007,94.2268123 10.7634319,94.3315709 10.7634319,94.4746284 L10.7634319,94.4746284 L10.7634319,94.4746284 Z" id="Stroke-29" stroke="#1D1C1B" stroke-width="0.66"></path>
                                <path d="M17.2169043,93.9924383 L17.2169043,94.4873195 C17.2169043,94.6307525 17.1020501,94.7355111 16.976081,94.7355111 C16.8367739,94.7355111 16.7352576,94.6307525 16.7352576,94.4873195 L16.7352576,94.3836874 C16.253611,94.6179862 15.7071273,94.7355111 15.0613503,94.7355111 C14.300719,94.7355111 13.7560878,94.5395111 13.4141187,94.1493885 C13.1103108,93.8107065 12.9572954,93.2895418 12.9572954,92.6249441 L12.9572954,89.1592736 C12.9572954,89.0297333 13.0717791,88.9114575 13.1981187,88.9114575 C13.3240878,88.9114575 13.438942,89.0297333 13.438942,89.1592736 L13.438942,92.6249441 C13.438942,93.1720169 13.5534257,93.5625149 13.7694257,93.8107065 C14.0217345,94.0968215 14.4537345,94.2402544 15.0613503,94.2402544 C15.6708185,94.2402544 16.1772885,94.1358713 16.6070655,93.9015724 C16.6070655,93.9015724 16.6589352,93.8752889 16.7352576,93.8366146 L16.7352576,89.1592736 C16.7352576,89.0297333 16.8367739,88.9114575 16.976081,88.9114575 C17.1020501,88.9114575 17.2169043,89.0297333 17.2169043,89.1592736 L17.2169043,93.9274805 L17.2169043,93.9924383 L17.2169043,93.9924383 Z" id="Fill-31" fill="#1B1B19"></path>
                                <path d="M17.2169043,93.9924383 L17.2169043,94.4873195 C17.2169043,94.6307525 17.1020501,94.7355111 16.976081,94.7355111 C16.8367739,94.7355111 16.7352576,94.6307525 16.7352576,94.4873195 L16.7352576,94.3836874 C16.253611,94.6179862 15.7071273,94.7355111 15.0613503,94.7355111 C14.300719,94.7355111 13.7560878,94.5395111 13.4141187,94.1493885 C13.1103108,93.8107065 12.9572954,93.2895418 12.9572954,92.6249441 L12.9572954,89.1592736 C12.9572954,89.0297333 13.0717791,88.9114575 13.1981187,88.9114575 C13.3240878,88.9114575 13.438942,89.0297333 13.438942,89.1592736 L13.438942,92.6249441 C13.438942,93.1720169 13.5534257,93.5625149 13.7694257,93.8107065 C14.0217345,94.0968215 14.4537345,94.2402544 15.0613503,94.2402544 C15.6708185,94.2402544 16.1772885,94.1358713 16.6070655,93.9015724 C16.6070655,93.9015724 16.6589352,93.8752889 16.7352576,93.8366146 L16.7352576,89.1592736 C16.7352576,89.0297333 16.8367739,88.9114575 16.976081,88.9114575 C17.1020501,88.9114575 17.2169043,89.0297333 17.2169043,89.1592736 L17.2169043,93.9274805 L17.2169043,93.9924383 L17.2169043,93.9924383 L17.2169043,93.9924383 Z" id="Stroke-33" stroke="#1D1C1B" stroke-width="0.66"></path>
                                <path d="M23.5806792,93.7970015 L23.5806792,89.8631088 C23.5421475,89.8372008 23.5039863,89.8112927 23.4524871,89.7846337 L23.3895026,89.7328176 C22.9845489,89.5244268 22.4780789,89.4076529 21.8819485,89.4076529 C21.2739623,89.4076529 20.8419623,89.5507103 20.6011389,89.8372008 C20.3851389,90.0842659 20.2725077,90.4755149 20.2725077,91.0225877 L20.2725077,92.6251318 C20.2725077,93.1722046 20.3851389,93.5627027 20.6011389,93.8105188 C20.8419623,94.0970092 21.2739623,94.2404421 21.8819485,94.2404421 C22.464741,94.2404421 22.9597256,94.1232927 23.4028405,93.9013847 C23.4028405,93.9013847 23.4906484,93.8627103 23.5806792,93.7970015 M24.0623259,86.6321126 L24.0623259,94.4875073 C24.0623259,94.6309402 23.9474717,94.7353234 23.8215026,94.7353234 C23.681825,94.7353234 23.5806792,94.6309402 23.5806792,94.4875073 L23.5806792,94.3575916 C23.0856947,94.6042812 22.5162401,94.7353234 21.8819485,94.7353234 C21.1342847,94.7353234 20.587801,94.5396989 20.2458319,94.1492008 C19.942024,93.8105188 19.7908611,93.3021203 19.7908611,92.6251318 L19.7908611,91.0225877 C19.7908611,90.3583655 19.942024,89.849967 20.2458319,89.5109096 C20.587801,89.120787 21.1342847,88.9251625 21.8819485,88.9251625 C22.5410635,88.9251625 23.0856947,89.0423119 23.5806792,89.290128 L23.5806792,86.6321126 C23.5806792,86.5021969 23.681825,86.3850475 23.8215026,86.3850475 C23.9474717,86.3850475 24.0623259,86.5021969 24.0623259,86.6321126" id="Fill-35" fill="#1B1B19"></path>
                                <path d="M23.5806792,93.7970015 L23.5806792,89.8631088 C23.5421475,89.8372008 23.5039863,89.8112927 23.4524871,89.7846337 L23.3895026,89.7328176 C22.9845489,89.5244268 22.4780789,89.4076529 21.8819485,89.4076529 C21.2739623,89.4076529 20.8419623,89.5507103 20.6011389,89.8372008 C20.3851389,90.0842659 20.2725077,90.4755149 20.2725077,91.0225877 L20.2725077,92.6251318 C20.2725077,93.1722046 20.3851389,93.5627027 20.6011389,93.8105188 C20.8419623,94.0970092 21.2739623,94.2404421 21.8819485,94.2404421 C22.464741,94.2404421 22.9597256,94.1232927 23.4028405,93.9013847 C23.4028405,93.9013847 23.4906484,93.8627103 23.5806792,93.7970015 L23.5806792,93.7970015 L23.5806792,93.7970015 Z M24.0623259,86.6321126 L24.0623259,94.4875073 C24.0623259,94.6309402 23.9474717,94.7353234 23.8215026,94.7353234 C23.681825,94.7353234 23.5806792,94.6309402 23.5806792,94.4875073 L23.5806792,94.3575916 C23.0856947,94.6042812 22.5162401,94.7353234 21.8819485,94.7353234 C21.1342847,94.7353234 20.587801,94.5396989 20.2458319,94.1492008 C19.942024,93.8105188 19.7908611,93.3021203 19.7908611,92.6251318 L19.7908611,91.0225877 C19.7908611,90.3583655 19.942024,89.849967 20.2458319,89.5109096 C20.587801,89.120787 21.1342847,88.9251625 21.8819485,88.9251625 C22.5410635,88.9251625 23.0856947,89.0423119 23.5806792,89.290128 L23.5806792,86.6321126 C23.5806792,86.5021969 23.681825,86.3850475 23.8215026,86.3850475 C23.9474717,86.3850475 24.0623259,86.5021969 24.0623259,86.6321126 L24.0623259,86.6321126 L24.0623259,86.6321126 Z" id="Stroke-37" stroke="#1D1C1B" stroke-width="0.66"></path>
                                <path d="M30.3245105,91.0227004 C30.3245105,90.4756276 30.2100268,90.0978958 29.9825413,89.8373134 C29.7168947,89.550823 29.2715568,89.40739 28.6506031,89.40739 C28.0944864,89.4336736 27.7006477,89.576731 27.4601949,89.8373134 C27.2327094,90.0843785 27.1178552,90.4756276 27.1178552,91.0091831 L27.1178552,91.4650146 L30.3245105,91.4650146 L30.3245105,91.0227004 L30.3245105,91.0227004 Z M30.8061571,91.0227004 L30.8061571,91.7128307 C30.8061571,91.8427464 30.6916734,91.9598958 30.5653338,91.9598958 L27.1178552,91.9598958 L27.1178552,92.6380107 C27.1178552,93.1723172 27.2327094,93.5628153 27.4601949,93.8106314 C27.725471,94.0971218 28.1689564,94.2401793 28.8036185,94.2401793 C29.3612172,94.2401793 29.8295259,94.1617042 30.1985413,94.0186467 C30.3245105,93.9664552 30.4638175,94.0186467 30.5138346,94.1493134 C30.5653338,94.2792291 30.5023492,94.4226621 30.3763801,94.4744782 C29.9443801,94.6441946 29.4245722,94.735436 28.8036185,94.735436 C28.0292789,94.735436 27.4601949,94.539436 27.1178552,94.1493134 C26.8007094,93.8106314 26.6362086,93.3153747 26.6362086,92.6380107 L26.6362086,91.0091831 C26.6362086,90.3445854 26.8007094,89.8500797 27.1178552,89.4982559 C27.435001,89.1468077 27.9548089,88.9511831 28.6391177,88.9113824 L28.6391177,88.9252751 L28.6391177,88.9113824 C29.4112343,88.9113824 29.9825413,89.1208996 30.3245105,89.5110222 C30.6531417,89.8500797 30.8061571,90.3445854 30.8061571,91.0227004 L30.8061571,91.0227004 L30.8061571,91.0227004 Z" id="Fill-39" fill="#1B1B19"></path>
                                <path d="M30.3245105,91.0227004 C30.3245105,90.4756276 30.2100268,90.0978958 29.9825413,89.8373134 C29.7168947,89.550823 29.2715568,89.40739 28.6506031,89.40739 C28.0944864,89.4336736 27.7006477,89.576731 27.4601949,89.8373134 C27.2327094,90.0843785 27.1178552,90.4756276 27.1178552,91.0091831 L27.1178552,91.4650146 L30.3245105,91.4650146 L30.3245105,91.0227004 L30.3245105,91.0227004 L30.3245105,91.0227004 Z M30.8061571,91.0227004 L30.8061571,91.7128307 C30.8061571,91.8427464 30.6916734,91.9598958 30.5653338,91.9598958 L27.1178552,91.9598958 L27.1178552,92.6380107 C27.1178552,93.1723172 27.2327094,93.5628153 27.4601949,93.8106314 C27.725471,94.0971218 28.1689564,94.2401793 28.8036185,94.2401793 C29.3612172,94.2401793 29.8295259,94.1617042 30.1985413,94.0186467 C30.3245105,93.9664552 30.4638175,94.0186467 30.5138346,94.1493134 C30.5653338,94.2792291 30.5023492,94.4226621 30.3763801,94.4744782 C29.9443801,94.6441946 29.4245722,94.735436 28.8036185,94.735436 C28.0292789,94.735436 27.4601949,94.539436 27.1178552,94.1493134 C26.8007094,93.8106314 26.6362086,93.3153747 26.6362086,92.6380107 L26.6362086,91.0091831 C26.6362086,90.3445854 26.8007094,89.8500797 27.1178552,89.4982559 C27.435001,89.1468077 27.9548089,88.9511831 28.6391177,88.9113824 L28.6391177,88.9252751 L28.6391177,88.9113824 C29.4112343,88.9113824 29.9825413,89.1208996 30.3245105,89.5110222 C30.6531417,89.8500797 30.8061571,90.3445854 30.8061571,91.0227004 L30.8061571,91.0227004 L30.8061571,91.0227004 Z" id="Stroke-41" stroke="#1D1C1B" stroke-width="0.66"></path>
                                <path d="M37.9437901,91.0227004 L37.9437901,94.4876199 C37.9437901,94.6306774 37.8426443,94.735436 37.7163046,94.735436 C37.5769976,94.735436 37.4736288,94.6306774 37.4736288,94.4876199 L37.4736288,91.0227004 C37.4736288,90.4880184 37.3609976,90.0843785 37.1316597,89.8373134 C36.8908364,89.550823 36.4610593,89.40739 35.8512206,89.40739 C35.2436048,89.40739 34.7371348,89.5110222 34.3051348,89.7453211 C34.3051348,89.7453211 34.2421503,89.7716046 34.1791657,89.8110299 L34.1791657,94.4876199 C34.1791657,94.6306774 34.0643115,94.735436 33.9383424,94.735436 C33.7986648,94.735436 33.697519,94.6306774 33.697519,94.4876199 L33.697519,89.720164 L33.697519,89.6540797 L33.697519,89.1591985 C33.697519,89.0296582 33.7986648,88.9113824 33.9383424,88.9113824 C34.0643115,88.9113824 34.1791657,89.0296582 34.1791657,89.1591985 L34.1791657,89.2639571 C34.6608123,89.0296582 35.2054436,88.9113824 35.8512206,88.9113824 C36.6003664,88.9113824 37.1583355,89.1070069 37.5006751,89.4982559 C37.7907746,89.8373134 37.9437901,90.3581027 37.9437901,91.0227004" id="Fill-43" fill="#1B1B19"></path>
                                <path d="M37.9437901,91.0227004 L37.9437901,94.4876199 C37.9437901,94.6306774 37.8426443,94.735436 37.7163046,94.735436 C37.5769976,94.735436 37.4736288,94.6306774 37.4736288,94.4876199 L37.4736288,91.0227004 C37.4736288,90.4880184 37.3609976,90.0843785 37.1316597,89.8373134 C36.8908364,89.550823 36.4610593,89.40739 35.8512206,89.40739 C35.2436048,89.40739 34.7371348,89.5110222 34.3051348,89.7453211 C34.3051348,89.7453211 34.2421503,89.7716046 34.1791657,89.8110299 L34.1791657,94.4876199 C34.1791657,94.6306774 34.0643115,94.735436 33.9383424,94.735436 C33.7986648,94.735436 33.697519,94.6306774 33.697519,94.4876199 L33.697519,89.720164 L33.697519,89.6540797 L33.697519,89.1591985 C33.697519,89.0296582 33.7986648,88.9113824 33.9383424,88.9113824 C34.0643115,88.9113824 34.1791657,89.0296582 34.1791657,89.1591985 L34.1791657,89.2639571 C34.6608123,89.0296582 35.2054436,88.9113824 35.8512206,88.9113824 C36.6003664,88.9113824 37.1583355,89.1070069 37.5006751,89.4982559 C37.7907746,89.8373134 37.9437901,90.3581027 37.9437901,91.0227004 L37.9437901,91.0227004 L37.9437901,91.0227004 Z" id="Stroke-45" stroke="#1D1C1B" stroke-width="0.66"></path>
                                <path d="M43.6481537,94.4746284 C43.6481537,94.6045441 43.5470079,94.7224444 43.4073304,94.7224444 L43.3939925,94.7224444 C43.2298621,94.7224444 42.1898758,94.6965364 41.442953,93.9403218 C40.9479684,93.4454406 40.7071451,92.7684521 40.7071451,91.9086054 L40.7071451,89.1469579 L40.7071451,86.6196092 C40.7071451,86.488567 40.8082909,86.3714176 40.9479684,86.3714176 C41.0761605,86.3714176 41.1773063,86.488567 41.1773063,86.6196092 L41.1773063,88.8987663 L42.8626991,88.8987663 C43.0023767,88.8987663 43.1035225,89.0162912 43.1035225,89.1469579 C43.1035225,89.2764981 43.0023767,89.394023 42.8626991,89.394023 L41.1773063,89.394023 L41.1773063,91.9086054 C41.1773063,92.6250192 41.3795979,93.198751 41.7715842,93.5888736 C42.4195842,94.2403295 43.3939925,94.2268123 43.3939925,94.2268123 L43.4073304,94.2268123 C43.5332995,94.2268123 43.6481537,94.3315709 43.6481537,94.4746284" id="Fill-47" fill="#1B1B19"></path>
                                <path d="M43.6481537,94.4746284 C43.6481537,94.6045441 43.5470079,94.7224444 43.4073304,94.7224444 L43.3939925,94.7224444 C43.2298621,94.7224444 42.1898758,94.6965364 41.442953,93.9403218 C40.9479684,93.4454406 40.7071451,92.7684521 40.7071451,91.9086054 L40.7071451,89.1469579 L40.7071451,86.6196092 C40.7071451,86.488567 40.8082909,86.3714176 40.9479684,86.3714176 C41.0761605,86.3714176 41.1773063,86.488567 41.1773063,86.6196092 L41.1773063,88.8987663 L42.8626991,88.8987663 C43.0023767,88.8987663 43.1035225,89.0162912 43.1035225,89.1469579 C43.1035225,89.2764981 43.0023767,89.394023 42.8626991,89.394023 L41.1773063,89.394023 L41.1773063,91.9086054 C41.1773063,92.6250192 41.3795979,93.198751 41.7715842,93.5888736 C42.4195842,94.2403295 43.3939925,94.2268123 43.3939925,94.2268123 L43.4073304,94.2268123 C43.5332995,94.2268123 43.6481537,94.3315709 43.6481537,94.4746284 L43.6481537,94.4746284 L43.6481537,94.4746284 Z" id="Stroke-49" stroke="#1D1C1B" stroke-width="0.66"></path>
                                <path d="M55.3875499,94.4874322 C55.3875499,94.6180989 55.2726957,94.7352483 55.1467266,94.7352483 L50.621471,94.7352483 C50.482164,94.7352483 50.3806477,94.6180989 50.3806477,94.4874322 L50.3806477,86.3849724 C50.3806477,86.2419149 50.482164,86.1371563 50.621471,86.1371563 L55.1467266,86.1371563 C55.2726957,86.1371563 55.3875499,86.2419149 55.3875499,86.3849724 C55.3875499,86.5148881 55.2726957,86.6320375 55.1467266,86.6320375 L50.8489564,86.6320375 L50.8489564,89.9279916 L54.867742,89.9279916 C54.9940816,89.9279916 55.1085654,90.0319992 55.1085654,90.1754322 C55.1085654,90.3057234 54.9940816,90.4232483 54.867742,90.4232483 L50.8489564,90.4232483 L50.8489564,94.240367 L55.1467266,94.240367 C55.2726957,94.240367 55.3875499,94.3439992 55.3875499,94.4874322" id="Fill-51" fill="#1B1B19"></path>
                                <path d="M55.3875499,94.4874322 C55.3875499,94.6180989 55.2726957,94.7352483 55.1467266,94.7352483 L50.621471,94.7352483 C50.482164,94.7352483 50.3806477,94.6180989 50.3806477,94.4874322 L50.3806477,86.3849724 C50.3806477,86.2419149 50.482164,86.1371563 50.621471,86.1371563 L55.1467266,86.1371563 C55.2726957,86.1371563 55.3875499,86.2419149 55.3875499,86.3849724 C55.3875499,86.5148881 55.2726957,86.6320375 55.1467266,86.6320375 L50.8489564,86.6320375 L50.8489564,89.9279916 L54.867742,89.9279916 C54.9940816,89.9279916 55.1085654,90.0319992 55.1085654,90.1754322 C55.1085654,90.3057234 54.9940816,90.4232483 54.867742,90.4232483 L50.8489564,90.4232483 L50.8489564,94.240367 L55.1467266,94.240367 C55.2726957,94.240367 55.3875499,94.3439992 55.3875499,94.4874322 L55.3875499,94.4874322 L55.3875499,94.4874322 Z" id="Stroke-53" stroke="#1D1C1B" stroke-width="0.66"></path>
                                <path d="M62.5252569,91.0227004 L62.5252569,94.4876199 C62.5252569,94.6306774 62.4241111,94.735436 62.295919,94.735436 C62.1562415,94.735436 62.0550957,94.6306774 62.0550957,94.4876199 L62.0550957,91.0227004 C62.0550957,90.4880184 61.9424645,90.0843785 61.7131266,89.8373134 C61.4723033,89.550823 61.0425262,89.40739 60.4326875,89.40739 C59.8250717,89.40739 59.3186017,89.5110222 58.8866017,89.7453211 C58.8866017,89.7453211 58.8236172,89.7716046 58.7606326,89.8110299 L58.7606326,94.4876199 C58.7606326,94.6306774 58.6457784,94.735436 58.5198093,94.735436 C58.3801317,94.735436 58.2789859,94.6306774 58.2789859,94.4876199 L58.2789859,89.720164 L58.2789859,89.6540797 L58.2789859,89.1591985 C58.2789859,89.0296582 58.3801317,88.9113824 58.5198093,88.9113824 C58.6457784,88.9113824 58.7606326,89.0296582 58.7606326,89.1591985 L58.7606326,89.2639571 C59.2422792,89.0296582 59.7869105,88.9113824 60.4326875,88.9113824 C61.1818333,88.9113824 61.7379499,89.1070069 62.0817715,89.4982559 C62.3722415,89.8373134 62.5252569,90.3581027 62.5252569,91.0227004" id="Fill-55" fill="#1B1B19"></path>
                                <path d="M62.5252569,91.0227004 L62.5252569,94.4876199 C62.5252569,94.6306774 62.4241111,94.735436 62.295919,94.735436 C62.1562415,94.735436 62.0550957,94.6306774 62.0550957,94.4876199 L62.0550957,91.0227004 C62.0550957,90.4880184 61.9424645,90.0843785 61.7131266,89.8373134 C61.4723033,89.550823 61.0425262,89.40739 60.4326875,89.40739 C59.8250717,89.40739 59.3186017,89.5110222 58.8866017,89.7453211 C58.8866017,89.7453211 58.8236172,89.7716046 58.7606326,89.8110299 L58.7606326,94.4876199 C58.7606326,94.6306774 58.6457784,94.735436 58.5198093,94.735436 C58.3801317,94.735436 58.2789859,94.6306774 58.2789859,94.4876199 L58.2789859,89.720164 L58.2789859,89.6540797 L58.2789859,89.1591985 C58.2789859,89.0296582 58.3801317,88.9113824 58.5198093,88.9113824 C58.6457784,88.9113824 58.7606326,89.0296582 58.7606326,89.1591985 L58.7606326,89.2639571 C59.2422792,89.0296582 59.7869105,88.9113824 60.4326875,88.9113824 C61.1818333,88.9113824 61.7379499,89.1070069 62.0817715,89.4982559 C62.3722415,89.8373134 62.5252569,90.3581027 62.5252569,91.0227004 L62.5252569,91.0227004 L62.5252569,91.0227004 Z" id="Stroke-57" stroke="#1D1C1B" stroke-width="0.66"></path>
                                <path d="M68.2295835,94.4746284 C68.2295835,94.6045441 68.1284377,94.7224444 67.9887602,94.7224444 L67.9754223,94.7224444 C67.8112919,94.7224444 66.7713057,94.6965364 66.0243828,93.9403218 C65.5293983,93.4454406 65.288575,92.7684521 65.288575,91.9086054 L65.288575,89.1469579 L65.288575,86.6196092 C65.288575,86.488567 65.3897208,86.3714176 65.5293983,86.3714176 C65.6553674,86.3714176 65.7568837,86.488567 65.7568837,86.6196092 L65.7568837,88.8987663 L67.444129,88.8987663 C67.5838065,88.8987663 67.6849523,89.0162912 67.6849523,89.1469579 C67.6849523,89.2764981 67.5838065,89.394023 67.444129,89.394023 L65.7568837,89.394023 L65.7568837,91.9086054 C65.7568837,92.6250192 65.9610278,93.198751 66.3530141,93.5888736 C67.0010141,94.2403295 67.9754223,94.2268123 67.9754223,94.2268123 L67.9887602,94.2268123 C68.1147293,94.2268123 68.2295835,94.3315709 68.2295835,94.4746284" id="Fill-59" fill="#1B1B19"></path>
                                <path d="M68.2295835,94.4746284 C68.2295835,94.6045441 68.1284377,94.7224444 67.9887602,94.7224444 L67.9754223,94.7224444 C67.8112919,94.7224444 66.7713057,94.6965364 66.0243828,93.9403218 C65.5293983,93.4454406 65.288575,92.7684521 65.288575,91.9086054 L65.288575,89.1469579 L65.288575,86.6196092 C65.288575,86.488567 65.3897208,86.3714176 65.5293983,86.3714176 C65.6553674,86.3714176 65.7568837,86.488567 65.7568837,86.6196092 L65.7568837,88.8987663 L67.444129,88.8987663 C67.5838065,88.8987663 67.6849523,89.0162912 67.6849523,89.1469579 C67.6849523,89.2764981 67.5838065,89.394023 67.444129,89.394023 L65.7568837,89.394023 L65.7568837,91.9086054 C65.7568837,92.6250192 65.9610278,93.198751 66.3530141,93.5888736 C67.0010141,94.2403295 67.9754223,94.2268123 67.9754223,94.2268123 L67.9887602,94.2268123 C68.1147293,94.2268123 68.2295835,94.3315709 68.2295835,94.4746284 L68.2295835,94.4746284 L68.2295835,94.4746284 Z" id="Stroke-61" stroke="#1D1C1B" stroke-width="0.66"></path>
                                <path d="M73.2747211,89.1731663 C73.2747211,89.3027065 73.1620899,89.4074651 73.0338978,89.4074651 L72.8945907,89.4074651 C72.2866045,89.4074651 71.7919904,89.5107218 71.348505,89.7450207 C71.348505,89.7450207 71.2988583,89.7716797 71.2221654,89.811105 L71.2221654,94.4873195 C71.2221654,94.6307525 71.1210196,94.7351356 70.9817125,94.7351356 C70.8535204,94.7351356 70.7408892,94.6307525 70.7408892,94.4873195 L70.7408892,89.7202391 L70.7408892,89.6541548 L70.7408892,89.1592736 C70.7408892,89.0297333 70.8535204,88.9114575 70.9817125,88.9114575 C71.1210196,88.9114575 71.2221654,89.0297333 71.2221654,89.1592736 L71.2221654,89.2640322 C71.703812,89.0297333 72.2484432,88.9114575 72.8945907,88.9114575 L73.0472357,88.9114575 C73.1869132,88.9253502 73.288059,89.0297333 73.2747211,89.1731663" id="Fill-63" fill="#1B1B19"></path>
                                <path d="M73.2747211,89.1731663 C73.2747211,89.3027065 73.1620899,89.4074651 73.0338978,89.4074651 L72.8945907,89.4074651 C72.2866045,89.4074651 71.7919904,89.5107218 71.348505,89.7450207 C71.348505,89.7450207 71.2988583,89.7716797 71.2221654,89.811105 L71.2221654,94.4873195 C71.2221654,94.6307525 71.1210196,94.7351356 70.9817125,94.7351356 C70.8535204,94.7351356 70.7408892,94.6307525 70.7408892,94.4873195 L70.7408892,89.7202391 L70.7408892,89.6541548 L70.7408892,89.1592736 C70.7408892,89.0297333 70.8535204,88.9114575 70.9817125,88.9114575 C71.1210196,88.9114575 71.2221654,89.0297333 71.2221654,89.1592736 L71.2221654,89.2640322 C71.703812,89.0297333 72.2484432,88.9114575 72.8945907,88.9114575 L73.0472357,88.9114575 C73.1869132,88.9253502 73.288059,89.0297333 73.2747211,89.1731663 L73.2747211,89.1731663 L73.2747211,89.1731663 Z" id="Stroke-65" stroke="#1D1C1B" stroke-width="0.66"></path>
                                <path d="M79.105165,91.0227004 C79.105165,90.4756276 78.9925338,90.0978958 78.7631959,89.8373134 C78.4975492,89.550823 78.0540638,89.40739 77.4331101,89.40739 C76.875141,89.4336736 76.4813022,89.576731 76.2408494,89.8373134 C76.0129935,90.0843785 75.8985098,90.4756276 75.8985098,91.0091831 L75.8985098,91.4650146 L79.105165,91.4650146 L79.105165,91.0227004 L79.105165,91.0227004 Z M79.5886642,91.0227004 L79.5886642,91.7128307 C79.5886642,91.8427464 79.4741804,91.9598958 79.3478408,91.9598958 L75.8985098,91.9598958 L75.8985098,92.6380107 C75.8985098,93.1723172 76.0129935,93.5628153 76.2408494,93.8106314 C76.507978,94.0971218 76.9514635,94.2401793 77.5857551,94.2401793 C78.1418717,94.2401793 78.6120329,94.1617042 78.9791959,94.0186467 C79.105165,93.9664552 79.2448425,94.0186467 79.2963417,94.1493134 C79.3478408,94.2792291 79.2830038,94.4226621 79.1570346,94.4744782 C78.7268871,94.6441946 78.2070792,94.735436 77.5857551,94.735436 C76.8121564,94.735436 76.2408494,94.539436 75.8985098,94.1493134 C75.5832165,93.8106314 75.4168631,93.3153747 75.4168631,92.6380107 L75.4168631,91.0091831 C75.4168631,90.3445854 75.5832165,89.8500797 75.8985098,89.4982559 C76.2156556,89.1468077 76.7354635,88.9511831 77.4197722,88.9113824 L77.4197722,88.9252751 L77.4197722,88.9113824 C78.1937413,88.9113824 78.7631959,89.1208996 79.105165,89.5110222 C79.4360192,89.8500797 79.5886642,90.3445854 79.5886642,91.0227004 L79.5886642,91.0227004 L79.5886642,91.0227004 Z" id="Fill-67" fill="#1B1B19"></path>
                                <path d="M79.105165,91.0227004 C79.105165,90.4756276 78.9925338,90.0978958 78.7631959,89.8373134 C78.4975492,89.550823 78.0540638,89.40739 77.4331101,89.40739 C76.875141,89.4336736 76.4813022,89.576731 76.2408494,89.8373134 C76.0129935,90.0843785 75.8985098,90.4756276 75.8985098,91.0091831 L75.8985098,91.4650146 L79.105165,91.4650146 L79.105165,91.0227004 L79.105165,91.0227004 L79.105165,91.0227004 Z M79.5886642,91.0227004 L79.5886642,91.7128307 C79.5886642,91.8427464 79.4741804,91.9598958 79.3478408,91.9598958 L75.8985098,91.9598958 L75.8985098,92.6380107 C75.8985098,93.1723172 76.0129935,93.5628153 76.2408494,93.8106314 C76.507978,94.0971218 76.9514635,94.2401793 77.5857551,94.2401793 C78.1418717,94.2401793 78.6120329,94.1617042 78.9791959,94.0186467 C79.105165,93.9664552 79.2448425,94.0186467 79.2963417,94.1493134 C79.3478408,94.2792291 79.2830038,94.4226621 79.1570346,94.4744782 C78.7268871,94.6441946 78.2070792,94.735436 77.5857551,94.735436 C76.8121564,94.735436 76.2408494,94.539436 75.8985098,94.1493134 C75.5832165,93.8106314 75.4168631,93.3153747 75.4168631,92.6380107 L75.4168631,91.0091831 C75.4168631,90.3445854 75.5832165,89.8500797 75.8985098,89.4982559 C76.2156556,89.1468077 76.7354635,88.9511831 77.4197722,88.9113824 L77.4197722,88.9252751 L77.4197722,88.9113824 C78.1937413,88.9113824 78.7631959,89.1208996 79.105165,89.5110222 C79.4360192,89.8500797 79.5886642,90.3445854 79.5886642,91.0227004 L79.5886642,91.0227004 L79.5886642,91.0227004 Z" id="Stroke-69" stroke="#1D1C1B" stroke-width="0.66"></path>
                                <path d="M86.256247,91.0227004 C86.256247,90.4756276 86.1413928,90.0843785 85.9257633,89.8373134 C85.68494,89.550823 85.2547925,89.40739 84.6586621,89.40739 C84.0758696,89.40739 83.5693997,89.5245395 83.1373997,89.7453211 C83.1259142,89.7453211 83.0362539,89.7847464 82.9599314,89.8500797 L82.9599314,93.7839724 C82.9866072,93.8106314 83.0247684,93.8365395 83.0744151,93.8624475 L83.1373997,93.9138881 C83.5560617,94.1234054 84.0510463,94.2401793 84.6586621,94.2401793 C85.2547925,94.2401793 85.68494,94.0971218 85.9257633,93.8106314 C86.1413928,93.5628153 86.256247,93.1723172 86.256247,92.6252444 L86.256247,91.0227004 L86.256247,91.0227004 Z M86.7378937,91.0227004 L86.7378937,92.6252444 C86.7378937,93.2894667 86.5848782,93.7971142 86.2810703,94.1357962 C85.9524391,94.5270452 85.39447,94.7226697 84.6586621,94.7226697 C83.9995472,94.7226697 83.4434305,94.6043939 82.9599314,94.3577042 L82.9599314,97.4970835 C82.9599314,97.640141 82.8469297,97.7448996 82.7191081,97.7448996 C82.5794305,97.7448996 82.4782847,97.640141 82.4782847,97.4970835 L82.4782847,89.1591985 C82.4782847,89.0296582 82.5794305,88.9113824 82.7191081,88.9113824 C82.8469297,88.9113824 82.9599314,89.0296582 82.9599314,89.1591985 L82.9599314,89.2902406 C83.4434305,89.0424245 84.0128851,88.9113824 84.6586621,88.9113824 C85.39447,88.9113824 85.9524391,89.1208996 86.2810703,89.5110222 C86.5848782,89.8373134 86.7378937,90.3445854 86.7378937,91.0227004 L86.7378937,91.0227004 L86.7378937,91.0227004 Z" id="Fill-71" fill="#1B1B19"></path>
                                <path d="M86.256247,91.0227004 C86.256247,90.4756276 86.1413928,90.0843785 85.9257633,89.8373134 C85.68494,89.550823 85.2547925,89.40739 84.6586621,89.40739 C84.0758696,89.40739 83.5693997,89.5245395 83.1373997,89.7453211 C83.1259142,89.7453211 83.0362539,89.7847464 82.9599314,89.8500797 L82.9599314,93.7839724 C82.9866072,93.8106314 83.0247684,93.8365395 83.0744151,93.8624475 L83.1373997,93.9138881 C83.5560617,94.1234054 84.0510463,94.2401793 84.6586621,94.2401793 C85.2547925,94.2401793 85.68494,94.0971218 85.9257633,93.8106314 C86.1413928,93.5628153 86.256247,93.1723172 86.256247,92.6252444 L86.256247,91.0227004 L86.256247,91.0227004 L86.256247,91.0227004 Z M86.7378937,91.0227004 L86.7378937,92.6252444 C86.7378937,93.2894667 86.5848782,93.7971142 86.2810703,94.1357962 C85.9524391,94.5270452 85.39447,94.7226697 84.6586621,94.7226697 C83.9995472,94.7226697 83.4434305,94.6043939 82.9599314,94.3577042 L82.9599314,97.4970835 C82.9599314,97.640141 82.8469297,97.7448996 82.7191081,97.7448996 C82.5794305,97.7448996 82.4782847,97.640141 82.4782847,97.4970835 L82.4782847,89.1591985 C82.4782847,89.0296582 82.5794305,88.9113824 82.7191081,88.9113824 C82.8469297,88.9113824 82.9599314,89.0296582 82.9599314,89.1591985 L82.9599314,89.2902406 C83.4434305,89.0424245 84.0128851,88.9113824 84.6586621,88.9113824 C85.39447,88.9113824 85.9524391,89.1208996 86.2810703,89.5110222 C86.5848782,89.8373134 86.7378937,90.3445854 86.7378937,91.0227004 L86.7378937,91.0227004 L86.7378937,91.0227004 Z" id="Stroke-73" stroke="#1D1C1B" stroke-width="0.66"></path>
                                <path d="M92.1632357,89.1731663 C92.1632357,89.3027065 92.0483815,89.4074651 91.9224123,89.4074651 L91.7831053,89.4074651 C91.175119,89.4074651 90.680505,89.5107218 90.2370196,89.7450207 C90.2370196,89.7450207 90.1855204,89.7716797 90.1106799,89.811105 L90.1106799,94.4873195 C90.1106799,94.6307525 90.0095341,94.7351356 89.8702271,94.7351356 C89.742035,94.7351356 89.6294038,94.6307525 89.6294038,94.4873195 L89.6294038,89.7202391 L89.6294038,89.6541548 L89.6294038,89.1592736 C89.6294038,89.0297333 89.742035,88.9114575 89.8702271,88.9114575 C90.0095341,88.9114575 90.1106799,89.0297333 90.1106799,89.1592736 L90.1106799,89.2640322 C90.5923266,89.0297333 91.1369578,88.9114575 91.7831053,88.9114575 L91.9357503,88.9114575 C92.0754278,88.9253502 92.1765736,89.0297333 92.1632357,89.1731663" id="Fill-75" fill="#1B1B19"></path>
                                <path d="M92.1632357,89.1731663 C92.1632357,89.3027065 92.0483815,89.4074651 91.9224123,89.4074651 L91.7831053,89.4074651 C91.175119,89.4074651 90.680505,89.5107218 90.2370196,89.7450207 C90.2370196,89.7450207 90.1855204,89.7716797 90.1106799,89.811105 L90.1106799,94.4873195 C90.1106799,94.6307525 90.0095341,94.7351356 89.8702271,94.7351356 C89.742035,94.7351356 89.6294038,94.6307525 89.6294038,94.4873195 L89.6294038,89.7202391 L89.6294038,89.6541548 L89.6294038,89.1592736 C89.6294038,89.0297333 89.742035,88.9114575 89.8702271,88.9114575 C90.0095341,88.9114575 90.1106799,89.0297333 90.1106799,89.1592736 L90.1106799,89.2640322 C90.5923266,89.0297333 91.1369578,88.9114575 91.7831053,88.9114575 L91.9357503,88.9114575 C92.0754278,88.9253502 92.1765736,89.0297333 92.1632357,89.1731663 L92.1632357,89.1731663 L92.1632357,89.1731663 Z" id="Stroke-77" stroke="#1D1C1B" stroke-width="0.66"></path>
                                <path d="M97.9956803,91.0227004 C97.9956803,90.4756276 97.8808261,90.0978958 97.6537111,89.8373134 C97.3858415,89.550823 96.9427266,89.40739 96.3214024,89.40739 C95.7638038,89.4336736 95.3718175,89.576731 95.1309942,89.8373134 C94.9016563,90.0843785 94.789025,90.4756276 94.789025,91.0091831 L94.789025,91.4650146 L97.9956803,91.4650146 L97.9956803,91.0227004 L97.9956803,91.0227004 Z M98.4773269,91.0227004 L98.4773269,91.7128307 C98.4773269,91.8427464 98.3624727,91.9598958 98.2365036,91.9598958 L94.789025,91.9598958 L94.789025,92.6380107 C94.789025,93.1723172 94.9016563,93.5628153 95.1309942,93.8106314 C95.3966408,94.0971218 95.8401262,94.2401793 96.4744178,94.2401793 C97.032387,94.2401793 97.5006957,94.1617042 97.8697111,94.0186467 C97.9956803,93.9664552 98.1349873,94.0186467 98.1850045,94.1493134 C98.2365036,94.2792291 98.1731485,94.4226621 98.0453269,94.4744782 C97.6155499,94.6441946 97.095742,94.735436 96.4744178,94.735436 C95.7004487,94.735436 95.1309942,94.539436 94.789025,94.1493134 C94.4718792,93.8106314 94.3073784,93.3153747 94.3073784,92.6380107 L94.3073784,91.0091831 C94.3073784,90.3445854 94.4718792,89.8500797 94.789025,89.4982559 C95.1061708,89.1468077 95.6259787,88.9511831 96.3102875,88.9113824 L96.3102875,88.9252751 L96.3102875,88.9113824 C97.0824041,88.9113824 97.6537111,89.1208996 97.9956803,89.5110222 C98.3243115,89.8500797 98.4773269,90.3445854 98.4773269,91.0227004 L98.4773269,91.0227004 L98.4773269,91.0227004 Z" id="Fill-79" fill="#1B1B19"></path>
                                <path d="M97.9956803,91.0227004 C97.9956803,90.4756276 97.8808261,90.0978958 97.6537111,89.8373134 C97.3858415,89.550823 96.9427266,89.40739 96.3214024,89.40739 C95.7638038,89.4336736 95.3718175,89.576731 95.1309942,89.8373134 C94.9016563,90.0843785 94.789025,90.4756276 94.789025,91.0091831 L94.789025,91.4650146 L97.9956803,91.4650146 L97.9956803,91.0227004 L97.9956803,91.0227004 L97.9956803,91.0227004 Z M98.4773269,91.0227004 L98.4773269,91.7128307 C98.4773269,91.8427464 98.3624727,91.9598958 98.2365036,91.9598958 L94.789025,91.9598958 L94.789025,92.6380107 C94.789025,93.1723172 94.9016563,93.5628153 95.1309942,93.8106314 C95.3966408,94.0971218 95.8401262,94.2401793 96.4744178,94.2401793 C97.032387,94.2401793 97.5006957,94.1617042 97.8697111,94.0186467 C97.9956803,93.9664552 98.1349873,94.0186467 98.1850045,94.1493134 C98.2365036,94.2792291 98.1731485,94.4226621 98.0453269,94.4744782 C97.6155499,94.6441946 97.095742,94.735436 96.4744178,94.735436 C95.7004487,94.735436 95.1309942,94.539436 94.789025,94.1493134 C94.4718792,93.8106314 94.3073784,93.3153747 94.3073784,92.6380107 L94.3073784,91.0091831 C94.3073784,90.3445854 94.4718792,89.8500797 94.789025,89.4982559 C95.1061708,89.1468077 95.6259787,88.9511831 96.3102875,88.9113824 L96.3102875,88.9252751 L96.3102875,88.9113824 C97.0824041,88.9113824 97.6537111,89.1208996 97.9956803,89.5110222 C98.3243115,89.8500797 98.4773269,90.3445854 98.4773269,91.0227004 L98.4773269,91.0227004 L98.4773269,91.0227004 Z" id="Stroke-81" stroke="#1D1C1B" stroke-width="0.66"></path>
                                <path d="M105.614923,91.0227004 L105.614923,94.4876199 C105.614923,94.6306774 105.511554,94.735436 105.385585,94.735436 C105.245907,94.735436 105.144762,94.6306774 105.144762,94.4876199 L105.144762,91.0227004 C105.144762,90.4880184 105.029907,90.0843785 104.802792,89.8373134 C104.561969,89.550823 104.129969,89.40739 103.522353,89.40739 C102.914738,89.40739 102.406415,89.5110222 101.976268,89.7453211 C101.976268,89.7453211 101.913283,89.7716046 101.850298,89.8110299 L101.850298,94.4876199 C101.850298,94.6306774 101.735444,94.735436 101.609475,94.735436 C101.469798,94.735436 101.368652,94.6306774 101.368652,94.4876199 L101.368652,89.720164 L101.368652,89.6540797 L101.368652,89.1591985 C101.368652,89.0296582 101.469798,88.9113824 101.609475,88.9113824 C101.735444,88.9113824 101.850298,89.0296582 101.850298,89.1591985 L101.850298,89.2639571 C102.331945,89.0296582 102.876206,88.9113824 103.522353,88.9113824 C104.269647,88.9113824 104.827616,89.1070069 105.169585,89.4982559 C105.461907,89.8373134 105.614923,90.3581027 105.614923,91.0227004" id="Fill-83" fill="#1B1B19"></path>
                                <path d="M105.614923,91.0227004 L105.614923,94.4876199 C105.614923,94.6306774 105.511554,94.735436 105.385585,94.735436 C105.245907,94.735436 105.144762,94.6306774 105.144762,94.4876199 L105.144762,91.0227004 C105.144762,90.4880184 105.029907,90.0843785 104.802792,89.8373134 C104.561969,89.550823 104.129969,89.40739 103.522353,89.40739 C102.914738,89.40739 102.406415,89.5110222 101.976268,89.7453211 C101.976268,89.7453211 101.913283,89.7716046 101.850298,89.8110299 L101.850298,94.4876199 C101.850298,94.6306774 101.735444,94.735436 101.609475,94.735436 C101.469798,94.735436 101.368652,94.6306774 101.368652,94.4876199 L101.368652,89.720164 L101.368652,89.6540797 L101.368652,89.1591985 C101.368652,89.0296582 101.469798,88.9113824 101.609475,88.9113824 C101.735444,88.9113824 101.850298,89.0296582 101.850298,89.1591985 L101.850298,89.2639571 C102.331945,89.0296582 102.876206,88.9113824 103.522353,88.9113824 C104.269647,88.9113824 104.827616,89.1070069 105.169585,89.4982559 C105.461907,89.8373134 105.614923,90.3581027 105.614923,91.0227004 L105.614923,91.0227004 L105.614923,91.0227004 Z" id="Stroke-85" stroke="#1D1C1B" stroke-width="0.66"></path>
                                <path d="M111.875403,91.0227004 C111.875403,90.4756276 111.762401,90.0978958 111.533063,89.8373134 C111.267417,89.550823 110.824302,89.40739 110.202978,89.40739 C109.645009,89.4336736 109.25154,89.576731 109.011087,89.8373134 C108.783232,90.0843785 108.668748,90.4756276 108.668748,91.0091831 L108.668748,91.4650146 L111.875403,91.4650146 L111.875403,91.0227004 L111.875403,91.0227004 Z M112.35705,91.0227004 L112.35705,91.7128307 C112.35705,91.8427464 112.244048,91.9598958 112.115856,91.9598958 L108.668748,91.9598958 L108.668748,92.6380107 C108.668748,93.1723172 108.783232,93.5628153 109.011087,93.8106314 C109.278216,94.0971218 109.721702,94.2401793 110.354511,94.2401793 C110.91211,94.2401793 111.382271,94.1617042 111.749063,94.0186467 C111.875403,93.9664552 112.015081,94.0186467 112.06658,94.1493134 C112.115856,94.2792291 112.052871,94.4226621 111.927273,94.4744782 C111.495273,94.6441946 110.975094,94.735436 110.354511,94.735436 C109.582395,94.735436 109.011087,94.539436 108.668748,94.1493134 C108.351602,93.8106314 108.187101,93.3153747 108.187101,92.6380107 L108.187101,91.0091831 C108.187101,90.3445854 108.351602,89.8500797 108.668748,89.4982559 C108.985894,89.1468077 109.505702,88.9511831 110.18964,88.9113824 L110.18964,88.9252751 L110.18964,88.9113824 C110.963979,88.9113824 111.533063,89.1208996 111.875403,89.5110222 C112.206257,89.8500797 112.35705,90.3445854 112.35705,91.0227004 L112.35705,91.0227004 L112.35705,91.0227004 Z" id="Fill-87" fill="#1B1B19"></path>
                                <path d="M111.875403,91.0227004 C111.875403,90.4756276 111.762401,90.0978958 111.533063,89.8373134 C111.267417,89.550823 110.824302,89.40739 110.202978,89.40739 C109.645009,89.4336736 109.25154,89.576731 109.011087,89.8373134 C108.783232,90.0843785 108.668748,90.4756276 108.668748,91.0091831 L108.668748,91.4650146 L111.875403,91.4650146 L111.875403,91.0227004 L111.875403,91.0227004 L111.875403,91.0227004 Z M112.35705,91.0227004 L112.35705,91.7128307 C112.35705,91.8427464 112.244048,91.9598958 112.115856,91.9598958 L108.668748,91.9598958 L108.668748,92.6380107 C108.668748,93.1723172 108.783232,93.5628153 109.011087,93.8106314 C109.278216,94.0971218 109.721702,94.2401793 110.354511,94.2401793 C110.91211,94.2401793 111.382271,94.1617042 111.749063,94.0186467 C111.875403,93.9664552 112.015081,94.0186467 112.06658,94.1493134 C112.115856,94.2792291 112.052871,94.4226621 111.927273,94.4744782 C111.495273,94.6441946 110.975094,94.735436 110.354511,94.735436 C109.582395,94.735436 109.011087,94.539436 108.668748,94.1493134 C108.351602,93.8106314 108.187101,93.3153747 108.187101,92.6380107 L108.187101,91.0091831 C108.187101,90.3445854 108.351602,89.8500797 108.668748,89.4982559 C108.985894,89.1468077 109.505702,88.9511831 110.18964,88.9113824 L110.18964,88.9252751 L110.18964,88.9113824 C110.963979,88.9113824 111.533063,89.1208996 111.875403,89.5110222 C112.206257,89.8500797 112.35705,90.3445854 112.35705,91.0227004 L112.35705,91.0227004 L112.35705,91.0227004 Z" id="Stroke-89" stroke="#1D1C1B" stroke-width="0.66"></path>
                                <path d="M119.190912,93.9924383 L119.190912,94.4873195 C119.190912,94.6307525 119.07791,94.7355111 118.950089,94.7355111 C118.810781,94.7355111 118.709265,94.6307525 118.709265,94.4873195 L118.709265,94.3836874 C118.227619,94.6179862 117.682987,94.7355111 117.03721,94.7355111 C116.276579,94.7355111 115.731948,94.5395111 115.387756,94.1493885 C115.083948,93.8107065 114.933155,93.2895418 114.933155,92.6249441 L114.933155,89.1592736 C114.933155,89.0297333 115.045787,88.9114575 115.173608,88.9114575 C115.299948,88.9114575 115.414802,89.0297333 115.414802,89.1592736 L115.414802,92.6249441 C115.414802,93.1720169 115.527063,93.5625149 115.743063,93.8107065 C115.997595,94.0968215 116.427372,94.2402544 117.03721,94.2402544 C117.644826,94.2402544 118.150926,94.1358713 118.582926,93.9015724 C118.582926,93.9015724 118.632572,93.8752889 118.709265,93.8366146 L118.709265,89.1592736 C118.709265,89.0297333 118.810781,88.9114575 118.950089,88.9114575 C119.07791,88.9114575 119.190912,89.0297333 119.190912,89.1592736 L119.190912,93.9274805 L119.190912,93.9924383 L119.190912,93.9924383 Z" id="Fill-91" fill="#1B1B19"></path>
                                <path d="M119.190912,93.9924383 L119.190912,94.4873195 C119.190912,94.6307525 119.07791,94.7355111 118.950089,94.7355111 C118.810781,94.7355111 118.709265,94.6307525 118.709265,94.4873195 L118.709265,94.3836874 C118.227619,94.6179862 117.682987,94.7355111 117.03721,94.7355111 C116.276579,94.7355111 115.731948,94.5395111 115.387756,94.1493885 C115.083948,93.8107065 114.933155,93.2895418 114.933155,92.6249441 L114.933155,89.1592736 C114.933155,89.0297333 115.045787,88.9114575 115.173608,88.9114575 C115.299948,88.9114575 115.414802,89.0297333 115.414802,89.1592736 L115.414802,92.6249441 C115.414802,93.1720169 115.527063,93.5625149 115.743063,93.8107065 C115.997595,94.0968215 116.427372,94.2402544 117.03721,94.2402544 C117.644826,94.2402544 118.150926,94.1358713 118.582926,93.9015724 C118.582926,93.9015724 118.632572,93.8752889 118.709265,93.8366146 L118.709265,89.1592736 C118.709265,89.0297333 118.810781,88.9114575 118.950089,88.9114575 C119.07791,88.9114575 119.190912,89.0297333 119.190912,89.1592736 L119.190912,93.9274805 L119.190912,93.9924383 L119.190912,93.9924383 L119.190912,93.9924383 Z" id="Stroke-93" stroke="#1D1C1B" stroke-width="0.66"></path>
                                <path d="M124.618106,89.1731663 C124.618106,89.3027065 124.503252,89.4074651 124.377283,89.4074651 L124.237976,89.4074651 C123.628137,89.4074651 123.135005,89.5107218 122.690038,89.7450207 C122.690038,89.7450207 122.640021,89.7716797 122.563698,89.811105 L122.563698,94.4873195 C122.563698,94.6307525 122.462552,94.7351356 122.322875,94.7351356 C122.196906,94.7351356 122.082051,94.6307525 122.082051,94.4873195 L122.082051,89.7202391 L122.082051,89.6541548 L122.082051,89.1592736 C122.082051,89.0297333 122.196906,88.9114575 122.322875,88.9114575 C122.462552,88.9114575 122.563698,89.0297333 122.563698,89.1592736 L122.563698,89.2640322 C123.045345,89.0297333 123.589976,88.9114575 124.237976,88.9114575 L124.388768,88.9114575 C124.528446,88.9253502 124.629221,89.0297333 124.618106,89.1731663" id="Fill-95" fill="#1B1B19"></path>
                                <path d="M124.618106,89.1731663 C124.618106,89.3027065 124.503252,89.4074651 124.377283,89.4074651 L124.237976,89.4074651 C123.628137,89.4074651 123.135005,89.5107218 122.690038,89.7450207 C122.690038,89.7450207 122.640021,89.7716797 122.563698,89.811105 L122.563698,94.4873195 C122.563698,94.6307525 122.462552,94.7351356 122.322875,94.7351356 C122.196906,94.7351356 122.082051,94.6307525 122.082051,94.4873195 L122.082051,89.7202391 L122.082051,89.6541548 L122.082051,89.1592736 C122.082051,89.0297333 122.196906,88.9114575 122.322875,88.9114575 C122.462552,88.9114575 122.563698,89.0297333 122.563698,89.1592736 L122.563698,89.2640322 C123.045345,89.0297333 123.589976,88.9114575 124.237976,88.9114575 L124.388768,88.9114575 C124.528446,88.9253502 124.629221,89.0297333 124.618106,89.1731663 L124.618106,89.1731663 L124.618106,89.1731663 Z" id="Stroke-97" stroke="#1D1C1B" stroke-width="0.66"></path>
                                <path d="M126.93805,94.5270452 C126.809858,94.4876199 126.733536,94.344187 126.771697,94.2142713 C126.809858,94.0836046 126.949536,94.0186467 127.077357,94.0573211 C127.786489,94.2792291 128.774606,94.344187 129.282928,93.9664552 C129.523752,93.7839724 129.636383,93.5237655 129.636383,93.1723172 C129.636383,92.3511448 129.015059,92.0905625 128.292959,91.778164 C127.622359,91.4912981 126.861728,91.1526161 126.861728,90.2409533 C126.861728,89.8632215 126.987697,89.550823 127.253343,89.3289149 C127.901343,88.7683249 129.168445,88.9252751 129.674544,89.016141 C129.802366,89.0296582 129.890544,89.1591985 129.877206,89.3026314 C129.852383,89.4336736 129.726043,89.5245395 129.598222,89.4982559 C128.875752,89.3675893 127.964328,89.3551985 127.559004,89.7066467 C127.406359,89.8373134 127.343374,90.0066544 127.343374,90.2409533 C127.343374,90.8007923 127.773151,91.0227004 128.484136,91.3219571 C129.206235,91.634731 130.106544,92.0259801 130.106544,93.1723172 C130.106544,93.6795893 129.928705,94.0836046 129.573028,94.3577042 C129.206235,94.6306774 128.724589,94.735436 128.229604,94.735436 C127.773151,94.735436 127.304843,94.6441946 126.93805,94.5270452" id="Fill-99" fill="#1B1B19"></path>
                                <path d="M126.93805,94.5270452 C126.809858,94.4876199 126.733536,94.344187 126.771697,94.2142713 C126.809858,94.0836046 126.949536,94.0186467 127.077357,94.0573211 C127.786489,94.2792291 128.774606,94.344187 129.282928,93.9664552 C129.523752,93.7839724 129.636383,93.5237655 129.636383,93.1723172 C129.636383,92.3511448 129.015059,92.0905625 128.292959,91.778164 C127.622359,91.4912981 126.861728,91.1526161 126.861728,90.2409533 C126.861728,89.8632215 126.987697,89.550823 127.253343,89.3289149 C127.901343,88.7683249 129.168445,88.9252751 129.674544,89.016141 C129.802366,89.0296582 129.890544,89.1591985 129.877206,89.3026314 C129.852383,89.4336736 129.726043,89.5245395 129.598222,89.4982559 C128.875752,89.3675893 127.964328,89.3551985 127.559004,89.7066467 C127.406359,89.8373134 127.343374,90.0066544 127.343374,90.2409533 C127.343374,90.8007923 127.773151,91.0227004 128.484136,91.3219571 C129.206235,91.634731 130.106544,92.0259801 130.106544,93.1723172 C130.106544,93.6795893 129.928705,94.0836046 129.573028,94.3577042 C129.206235,94.6306774 128.724589,94.735436 128.229604,94.735436 C127.773151,94.735436 127.304843,94.6441946 126.93805,94.5270452 L126.93805,94.5270452 L126.93805,94.5270452 Z" id="Stroke-101" stroke="#1D1C1B" stroke-width="0.66"></path>
                                <path d="M137.003354,91.0227004 L137.003354,94.4876199 C137.003354,94.6306774 136.888499,94.735436 136.76253,94.735436 C136.623223,94.735436 136.521707,94.6306774 136.521707,94.4876199 L136.521707,91.0227004 C136.521707,90.4880184 136.407223,90.0843785 136.191223,89.8373134 C135.938915,89.550823 135.506915,89.40739 134.899299,89.40739 C134.289831,89.40739 133.783361,89.5110222 133.351361,89.7453211 C133.351361,89.7453211 133.288376,89.7716046 133.225391,89.8110299 L133.225391,94.4876199 C133.225391,94.6306774 133.123875,94.735436 132.984198,94.735436 C132.858228,94.735436 132.743745,94.6306774 132.743745,94.4876199 L132.743745,89.720164 L132.743745,89.6540797 L132.743745,86.4497425 C132.743745,86.3194513 132.858228,86.2019264 132.984198,86.2019264 C133.123875,86.2019264 133.225391,86.3194513 133.225391,86.4497425 L133.225391,89.2639571 C133.707038,89.0296582 134.251299,88.9113824 134.899299,88.9113824 C135.65993,88.9113824 136.204561,89.1070069 136.546901,89.4982559 C136.850338,89.8373134 137.003354,90.3581027 137.003354,91.0227004" id="Fill-103" fill="#1B1B19"></path>
                                <path d="M137.003354,91.0227004 L137.003354,94.4876199 C137.003354,94.6306774 136.888499,94.735436 136.76253,94.735436 C136.623223,94.735436 136.521707,94.6306774 136.521707,94.4876199 L136.521707,91.0227004 C136.521707,90.4880184 136.407223,90.0843785 136.191223,89.8373134 C135.938915,89.550823 135.506915,89.40739 134.899299,89.40739 C134.289831,89.40739 133.783361,89.5110222 133.351361,89.7453211 C133.351361,89.7453211 133.288376,89.7716046 133.225391,89.8110299 L133.225391,94.4876199 C133.225391,94.6306774 133.123875,94.735436 132.984198,94.735436 C132.858228,94.735436 132.743745,94.6306774 132.743745,94.4876199 L132.743745,89.720164 L132.743745,89.6540797 L132.743745,86.4497425 C132.743745,86.3194513 132.858228,86.2019264 132.984198,86.2019264 C133.123875,86.2019264 133.225391,86.3194513 133.225391,86.4497425 L133.225391,89.2639571 C133.707038,89.0296582 134.251299,88.9113824 134.899299,88.9113824 C135.65993,88.9113824 136.204561,89.1070069 136.546901,89.4982559 C136.850338,89.8373134 137.003354,90.3581027 137.003354,91.0227004 L137.003354,91.0227004 L137.003354,91.0227004 Z" id="Stroke-105" stroke="#1D1C1B" stroke-width="0.66"></path>
                                <path d="M140.475693,89.159236 L140.475693,94.487282 C140.475693,94.6307149 140.374547,94.7354736 140.234869,94.7354736 C140.1089,94.7354736 140.007384,94.6307149 140.007384,94.487282 L140.007384,89.159236 C140.007384,89.0296958 140.1089,88.9114199 140.234869,88.9114199 C140.374547,88.9114199 140.475693,89.0296958 140.475693,89.159236 M140.590547,87.2311517 C140.590547,87.4271517 140.426046,87.5964927 140.234869,87.5964927 C140.045916,87.5964927 139.8929,87.4271517 139.8929,87.2311517 C139.8929,87.0359027 140.045916,86.8800789 140.234869,86.8800789 C140.426046,86.8800789 140.590547,87.0359027 140.590547,87.2311517" id="Fill-107" fill="#1B1B19"></path>
                                <path d="M140.475693,89.159236 L140.475693,94.487282 C140.475693,94.6307149 140.374547,94.7354736 140.234869,94.7354736 C140.1089,94.7354736 140.007384,94.6307149 140.007384,94.487282 L140.007384,89.159236 C140.007384,89.0296958 140.1089,88.9114199 140.234869,88.9114199 C140.374547,88.9114199 140.475693,89.0296958 140.475693,89.159236 L140.475693,89.159236 L140.475693,89.159236 Z M140.590547,87.2311517 C140.590547,87.4271517 140.426046,87.5964927 140.234869,87.5964927 C140.045916,87.5964927 139.8929,87.4271517 139.8929,87.2311517 C139.8929,87.0359027 140.045916,86.8800789 140.234869,86.8800789 C140.426046,86.8800789 140.590547,87.0359027 140.590547,87.2311517 L140.590547,87.2311517 L140.590547,87.2311517 Z" id="Stroke-109" stroke="#1D1C1B" stroke-width="0.66"></path>
                                <path d="M147.257907,91.0227004 C147.257907,90.4756276 147.143053,90.0843785 146.929276,89.8373134 C146.688453,89.550823 146.256453,89.40739 145.660322,89.40739 C145.07716,89.40739 144.57106,89.5245395 144.13906,89.7453211 C144.127575,89.7453211 144.037914,89.7847464 143.963074,89.8500797 L143.963074,93.7839724 C143.988268,93.8106314 144.026058,93.8365395 144.076075,93.8624475 L144.13906,93.9138881 C144.557722,94.1234054 145.052707,94.2401793 145.660322,94.2401793 C146.256453,94.2401793 146.688453,94.0971218 146.929276,93.8106314 C147.143053,93.5628153 147.257907,93.1723172 147.257907,92.6252444 L147.257907,91.0227004 L147.257907,91.0227004 Z M147.739554,91.0227004 L147.739554,92.6252444 C147.739554,93.2894667 147.588762,93.7971142 147.282731,94.1357962 C146.954099,94.5270452 146.39613,94.7226697 145.660322,94.7226697 C145.000837,94.7226697 144.44472,94.6043939 143.963074,94.3577042 L143.963074,97.4970835 C143.963074,97.640141 143.84859,97.7448996 143.722621,97.7448996 C143.582943,97.7448996 143.481798,97.640141 143.481798,97.4970835 L143.481798,89.1591985 C143.481798,89.0296582 143.582943,88.9113824 143.722621,88.9113824 C143.84859,88.9113824 143.963074,89.0296582 143.963074,89.1591985 L143.963074,89.2902406 C144.44472,89.0424245 145.014175,88.9113824 145.660322,88.9113824 C146.39613,88.9113824 146.954099,89.1208996 147.282731,89.5110222 C147.588762,89.8373134 147.739554,90.3445854 147.739554,91.0227004 L147.739554,91.0227004 L147.739554,91.0227004 Z" id="Fill-111" fill="#1B1B19"></path>
                                <path d="M147.257907,91.0227004 C147.257907,90.4756276 147.143053,90.0843785 146.929276,89.8373134 C146.688453,89.550823 146.256453,89.40739 145.660322,89.40739 C145.07716,89.40739 144.57106,89.5245395 144.13906,89.7453211 C144.127575,89.7453211 144.037914,89.7847464 143.963074,89.8500797 L143.963074,93.7839724 C143.988268,93.8106314 144.026058,93.8365395 144.076075,93.8624475 L144.13906,93.9138881 C144.557722,94.1234054 145.052707,94.2401793 145.660322,94.2401793 C146.256453,94.2401793 146.688453,94.0971218 146.929276,93.8106314 C147.143053,93.5628153 147.257907,93.1723172 147.257907,92.6252444 L147.257907,91.0227004 L147.257907,91.0227004 L147.257907,91.0227004 Z M147.739554,91.0227004 L147.739554,92.6252444 C147.739554,93.2894667 147.588762,93.7971142 147.282731,94.1357962 C146.954099,94.5270452 146.39613,94.7226697 145.660322,94.7226697 C145.000837,94.7226697 144.44472,94.6043939 143.963074,94.3577042 L143.963074,97.4970835 C143.963074,97.640141 143.84859,97.7448996 143.722621,97.7448996 C143.582943,97.7448996 143.481798,97.640141 143.481798,97.4970835 L143.481798,89.1591985 C143.481798,89.0296582 143.582943,88.9113824 143.722621,88.9113824 C143.84859,88.9113824 143.963074,89.0296582 143.963074,89.1591985 L143.963074,89.2902406 C144.44472,89.0424245 145.014175,88.9113824 145.660322,88.9113824 C146.39613,88.9113824 146.954099,89.1208996 147.282731,89.5110222 C147.588762,89.8373134 147.739554,90.3445854 147.739554,91.0227004 L147.739554,91.0227004 L147.739554,91.0227004 Z" id="Stroke-113" stroke="#1D1C1B" stroke-width="0.66"></path>
                                <path d="M157.476226,86.6320751 C157.476226,86.775508 157.361372,86.8798912 157.235403,86.8798912 L157.221695,86.8798912 C157.147225,86.8798912 156.22024,86.892282 155.599657,87.5178299 C155.270655,87.8568874 155.068364,88.3258605 155.029832,88.9112322 L156.690772,88.9112322 C156.830079,88.9112322 156.931225,89.0298835 156.931225,89.1590483 C156.931225,89.2900904 156.830079,89.4076153 156.690772,89.4076153 L155.016494,89.4076153 L155.016494,94.4874697 C155.016494,94.6309027 154.903863,94.7352858 154.775671,94.7352858 C154.636364,94.7352858 154.535218,94.6309027 154.535218,94.4874697 L154.535218,89.1980981 L154.535218,89.1733165 L154.535218,89.1590483 L154.535218,89.1466575 C154.548556,88.3130943 154.789009,87.648872 155.270655,87.1667571 C156.069448,86.3714927 157.196871,86.38501 157.248741,86.38501 C157.375081,86.38501 157.476226,86.5021594 157.476226,86.6320751" id="Fill-115" fill="#1B1B19"></path>
                                <path d="M157.476226,86.6320751 C157.476226,86.775508 157.361372,86.8798912 157.235403,86.8798912 L157.221695,86.8798912 C157.147225,86.8798912 156.22024,86.892282 155.599657,87.5178299 C155.270655,87.8568874 155.068364,88.3258605 155.029832,88.9112322 L156.690772,88.9112322 C156.830079,88.9112322 156.931225,89.0298835 156.931225,89.1590483 C156.931225,89.2900904 156.830079,89.4076153 156.690772,89.4076153 L155.016494,89.4076153 L155.016494,94.4874697 C155.016494,94.6309027 154.903863,94.7352858 154.775671,94.7352858 C154.636364,94.7352858 154.535218,94.6309027 154.535218,94.4874697 L154.535218,89.1980981 L154.535218,89.1733165 L154.535218,89.1590483 L154.535218,89.1466575 C154.548556,88.3130943 154.789009,87.648872 155.270655,87.1667571 C156.069448,86.3714927 157.196871,86.38501 157.248741,86.38501 C157.375081,86.38501 157.476226,86.5021594 157.476226,86.6320751 L157.476226,86.6320751 L157.476226,86.6320751 Z" id="Stroke-117" stroke="#1D1C1B" stroke-width="0.66"></path>
                                <path d="M159.631558,91.0091456 L159.631558,92.6379732 C159.631558,94.0448927 160.405527,94.2401418 161.229143,94.2401418 C162.052759,94.2401418 162.826728,94.0448927 162.826728,92.6379732 L162.826728,91.0091456 C162.826728,89.6018506 162.052759,89.4073525 161.229143,89.4073525 C160.405527,89.4073525 159.631558,89.6018506 159.631558,91.0091456 M159.163249,92.6379732 L159.163249,91.0091456 C159.163249,88.9113448 160.709335,88.9113448 161.229143,88.9113448 C161.749321,88.9113448 163.295407,88.9113448 163.295407,91.0091456 L163.295407,92.6379732 C163.295407,94.7226322 161.749321,94.7353985 161.229143,94.7353985 C160.709335,94.7353985 159.163249,94.7353985 159.163249,92.6379732" id="Fill-119" fill="#1B1B19"></path>
                                <path d="M159.631558,91.0091456 L159.631558,92.6379732 C159.631558,94.0448927 160.405527,94.2401418 161.229143,94.2401418 C162.052759,94.2401418 162.826728,94.0448927 162.826728,92.6379732 L162.826728,91.0091456 C162.826728,89.6018506 162.052759,89.4073525 161.229143,89.4073525 C160.405527,89.4073525 159.631558,89.6018506 159.631558,91.0091456 L159.631558,91.0091456 L159.631558,91.0091456 Z M159.163249,92.6379732 L159.163249,91.0091456 C159.163249,88.9113448 160.709335,88.9113448 161.229143,88.9113448 C161.749321,88.9113448 163.295407,88.9113448 163.295407,91.0091456 L163.295407,92.6379732 C163.295407,94.7226322 161.749321,94.7353985 161.229143,94.7353985 C160.709335,94.7353985 159.163249,94.7353985 159.163249,92.6379732 L159.163249,92.6379732 L159.163249,92.6379732 Z" id="Stroke-121" stroke="#1D1C1B" stroke-width="0.66"></path>
                                <path d="M168.720675,89.1731663 C168.720675,89.3027065 168.605821,89.4074651 168.479852,89.4074651 L168.340174,89.4074651 C167.732558,89.4074651 167.237574,89.5107218 166.794459,89.7450207 C166.794459,89.7450207 166.742589,89.7716797 166.668119,89.811105 L166.668119,94.4873195 C166.668119,94.6307525 166.566974,94.7351356 166.427296,94.7351356 C166.299474,94.7351356 166.186473,94.6307525 166.186473,94.4873195 L166.186473,89.7202391 L166.186473,89.6541548 L166.186473,89.1592736 C166.186473,89.0297333 166.299474,88.9114575 166.427296,88.9114575 C166.566974,88.9114575 166.668119,89.0297333 166.668119,89.1592736 L166.668119,89.2640322 C167.149766,89.0297333 167.694027,88.9114575 168.340174,88.9114575 L168.49319,88.9114575 C168.632867,88.9253502 168.733643,89.0297333 168.720675,89.1731663" id="Fill-123" fill="#1B1B19"></path>
                                <path d="M168.720675,89.1731663 C168.720675,89.3027065 168.605821,89.4074651 168.479852,89.4074651 L168.340174,89.4074651 C167.732558,89.4074651 167.237574,89.5107218 166.794459,89.7450207 C166.794459,89.7450207 166.742589,89.7716797 166.668119,89.811105 L166.668119,94.4873195 C166.668119,94.6307525 166.566974,94.7351356 166.427296,94.7351356 C166.299474,94.7351356 166.186473,94.6307525 166.186473,94.4873195 L166.186473,89.7202391 L166.186473,89.6541548 L166.186473,89.1592736 C166.186473,89.0297333 166.299474,88.9114575 166.427296,88.9114575 C166.566974,88.9114575 166.668119,89.0297333 166.668119,89.1592736 L166.668119,89.2640322 C167.149766,89.0297333 167.694027,88.9114575 168.340174,88.9114575 L168.49319,88.9114575 C168.632867,88.9253502 168.733643,89.0297333 168.720675,89.1731663 L168.720675,89.1731663 L168.720675,89.1731663 Z" id="Stroke-125" stroke="#1D1C1B" stroke-width="0.66"></path>
                                <path d="M175.08608,90.4356391 C175.08608,86.5535625 177.646958,86.1371563 178.749559,86.1371563 C180.079645,86.1371563 180.865099,86.4886046 180.891775,86.5021218 C181.018115,86.5535625 181.067761,86.7105126 181.018115,86.8276621 C180.966245,86.9572023 180.815452,87.0097693 180.700598,86.9572023 C180.68726,86.9448115 179.96479,86.6320375 178.749559,86.6320375 C177.556928,86.6320375 175.567727,87.1265433 175.567727,90.4356391 C175.567727,93.7454858 177.556928,94.240367 178.749559,94.240367 C179.96479,94.240367 180.68726,93.9140759 180.700598,93.9140759 C180.815452,93.8626352 180.966245,93.9140759 181.018115,94.0323517 C181.067761,94.161892 181.018115,94.3053249 180.891775,94.3575165 C180.865099,94.3838 180.079645,94.7352483 178.749559,94.7352483 C177.646958,94.7352483 175.08608,94.3188421 175.08608,90.4356391" id="Fill-127" fill="#1B1B19"></path>
                                <path d="M175.08608,90.4356391 C175.08608,86.5535625 177.646958,86.1371563 178.749559,86.1371563 C180.079645,86.1371563 180.865099,86.4886046 180.891775,86.5021218 C181.018115,86.5535625 181.067761,86.7105126 181.018115,86.8276621 C180.966245,86.9572023 180.815452,87.0097693 180.700598,86.9572023 C180.68726,86.9448115 179.96479,86.6320375 178.749559,86.6320375 C177.556928,86.6320375 175.567727,87.1265433 175.567727,90.4356391 C175.567727,93.7454858 177.556928,94.240367 178.749559,94.240367 C179.96479,94.240367 180.68726,93.9140759 180.700598,93.9140759 C180.815452,93.8626352 180.966245,93.9140759 181.018115,94.0323517 C181.067761,94.161892 181.018115,94.3053249 180.891775,94.3575165 C180.865099,94.3838 180.079645,94.7352483 178.749559,94.7352483 C177.646958,94.7352483 175.08608,94.3188421 175.08608,90.4356391 L175.08608,90.4356391 L175.08608,90.4356391 Z" id="Stroke-129" stroke="#1D1C1B" stroke-width="0.66"></path>
                                <path d="M188.193872,91.0227004 L188.193872,94.4876199 C188.193872,94.6306774 188.079017,94.735436 187.953048,94.735436 C187.813741,94.735436 187.712225,94.6306774 187.712225,94.4876199 L187.712225,91.0227004 C187.712225,90.4880184 187.597741,90.0843785 187.381741,89.8373134 C187.129433,89.550823 186.697433,89.40739 186.089817,89.40739 C185.480349,89.40739 184.973879,89.5110222 184.541879,89.7453211 C184.541879,89.7453211 184.478894,89.7716046 184.415909,89.8110299 L184.415909,94.4876199 C184.415909,94.6306774 184.314393,94.735436 184.174716,94.735436 C184.048746,94.735436 183.934263,94.6306774 183.934263,94.4876199 L183.934263,89.720164 L183.934263,89.6540797 L183.934263,86.4497425 C183.934263,86.3194513 184.048746,86.2019264 184.174716,86.2019264 C184.314393,86.2019264 184.415909,86.3194513 184.415909,86.4497425 L184.415909,89.2639571 C184.897556,89.0296582 185.441817,88.9113824 186.089817,88.9113824 C186.850448,88.9113824 187.395079,89.1070069 187.737048,89.4982559 C188.040856,89.8373134 188.193872,90.3581027 188.193872,91.0227004" id="Fill-131" fill="#1B1B19"></path>
                                <path d="M188.193872,91.0227004 L188.193872,94.4876199 C188.193872,94.6306774 188.079017,94.735436 187.953048,94.735436 C187.813741,94.735436 187.712225,94.6306774 187.712225,94.4876199 L187.712225,91.0227004 C187.712225,90.4880184 187.597741,90.0843785 187.381741,89.8373134 C187.129433,89.550823 186.697433,89.40739 186.089817,89.40739 C185.480349,89.40739 184.973879,89.5110222 184.541879,89.7453211 C184.541879,89.7453211 184.478894,89.7716046 184.415909,89.8110299 L184.415909,94.4876199 C184.415909,94.6306774 184.314393,94.735436 184.174716,94.735436 C184.048746,94.735436 183.934263,94.6306774 183.934263,94.4876199 L183.934263,89.720164 L183.934263,89.6540797 L183.934263,86.4497425 C183.934263,86.3194513 184.048746,86.2019264 184.174716,86.2019264 C184.314393,86.2019264 184.415909,86.3194513 184.415909,86.4497425 L184.415909,89.2639571 C184.897556,89.0296582 185.441817,88.9113824 186.089817,88.9113824 C186.850448,88.9113824 187.395079,89.1070069 187.737048,89.4982559 C188.040856,89.8373134 188.193872,90.3581027 188.193872,91.0227004 L188.193872,91.0227004 L188.193872,91.0227004 Z" id="Stroke-133" stroke="#1D1C1B" stroke-width="0.66"></path>
                                <path d="M194.456167,93.5498613 L194.456167,91.791118 C194.240167,91.7516927 193.821876,91.6743441 193.353567,91.648436 C193.239083,91.6345433 193.124229,91.6345433 193.011598,91.6345433 C192.327289,91.6345433 191.832305,91.7779762 191.539982,92.0385586 C191.33732,92.2338077 191.249512,92.4816238 191.249512,92.8199303 C191.249512,93.4589954 191.476998,93.8626352 191.983097,94.0837923 C192.224291,94.1881755 192.516613,94.240367 192.833759,94.240367 C193.391728,94.240367 193.949697,94.0710261 194.264991,93.7969264 C194.341313,93.7319686 194.418006,93.6407272 194.456167,93.5498613 L194.456167,93.5498613 L194.456167,93.5498613 Z M194.937814,93.6148192 L194.937814,93.6275854 L194.937814,94.4874322 C194.937814,94.6180989 194.836298,94.7352483 194.696991,94.7352483 C194.571022,94.7352483 194.456167,94.6180989 194.456167,94.4874322 L194.456167,94.2666506 C194.050843,94.553141 193.441375,94.7352483 192.833759,94.7352483 C192.453629,94.7352483 192.097951,94.6702904 191.794143,94.5396238 C191.110205,94.2268498 190.767866,93.6534935 190.767866,92.8199303 C190.767866,92.3385663 190.919028,91.9600835 191.211351,91.6867349 C191.654466,91.2695778 192.377306,91.087095 193.391728,91.1524284 C193.821876,91.1787119 194.202006,91.2440452 194.456167,91.2954858 L194.456167,90.8268881 C194.456167,90.3447732 194.355022,90.0064667 194.15236,89.7849341 C193.911536,89.5243517 193.492874,89.4075778 192.910082,89.4075778 C192.390644,89.4075778 191.958644,89.4725356 191.616305,89.6017004 C191.490336,89.6542674 191.350658,89.5893096 191.299159,89.4725356 C191.260998,89.3414935 191.326205,89.1980605 191.438466,89.1466199 C191.845643,88.9896697 192.338775,88.9111946 192.910082,88.9111946 C193.632552,88.9111946 194.163845,89.0948038 194.494699,89.4458766 C194.798507,89.7586506 194.937814,90.2148575 194.937814,90.8268881 L194.937814,91.595869 L194.937814,91.6082598 L194.937814,93.6148192 L194.937814,93.6148192 Z" id="Fill-135" fill="#1B1B19"></path>
                                <path d="M194.456167,93.5498613 L194.456167,91.791118 C194.240167,91.7516927 193.821876,91.6743441 193.353567,91.648436 C193.239083,91.6345433 193.124229,91.6345433 193.011598,91.6345433 C192.327289,91.6345433 191.832305,91.7779762 191.539982,92.0385586 C191.33732,92.2338077 191.249512,92.4816238 191.249512,92.8199303 C191.249512,93.4589954 191.476998,93.8626352 191.983097,94.0837923 C192.224291,94.1881755 192.516613,94.240367 192.833759,94.240367 C193.391728,94.240367 193.949697,94.0710261 194.264991,93.7969264 C194.341313,93.7319686 194.418006,93.6407272 194.456167,93.5498613 L194.456167,93.5498613 L194.456167,93.5498613 Z M194.937814,93.6148192 L194.937814,93.6275854 L194.937814,94.4874322 C194.937814,94.6180989 194.836298,94.7352483 194.696991,94.7352483 C194.571022,94.7352483 194.456167,94.6180989 194.456167,94.4874322 L194.456167,94.2666506 C194.050843,94.553141 193.441375,94.7352483 192.833759,94.7352483 C192.453629,94.7352483 192.097951,94.6702904 191.794143,94.5396238 C191.110205,94.2268498 190.767866,93.6534935 190.767866,92.8199303 C190.767866,92.3385663 190.919028,91.9600835 191.211351,91.6867349 C191.654466,91.2695778 192.377306,91.087095 193.391728,91.1524284 C193.821876,91.1787119 194.202006,91.2440452 194.456167,91.2954858 L194.456167,90.8268881 C194.456167,90.3447732 194.355022,90.0064667 194.15236,89.7849341 C193.911536,89.5243517 193.492874,89.4075778 192.910082,89.4075778 C192.390644,89.4075778 191.958644,89.4725356 191.616305,89.6017004 C191.490336,89.6542674 191.350658,89.5893096 191.299159,89.4725356 C191.260998,89.3414935 191.326205,89.1980605 191.438466,89.1466199 C191.845643,88.9896697 192.338775,88.9111946 192.910082,88.9111946 C193.632552,88.9111946 194.163845,89.0948038 194.494699,89.4458766 C194.798507,89.7586506 194.937814,90.2148575 194.937814,90.8268881 L194.937814,91.595869 L194.937814,91.6082598 L194.937814,93.6148192 L194.937814,93.6148192 L194.937814,93.6148192 Z" id="Stroke-137" stroke="#1D1C1B" stroke-width="0.66"></path>
                                <path d="M202.075595,91.0227004 L202.075595,94.4876199 C202.075595,94.6306774 201.972226,94.735436 201.846257,94.735436 C201.70658,94.735436 201.605063,94.6306774 201.605063,94.4876199 L201.605063,91.0227004 C201.605063,90.4880184 201.49058,90.0843785 201.263465,89.8373134 C201.022271,89.550823 200.590642,89.40739 199.983026,89.40739 C199.375039,89.40739 198.866717,89.5110222 198.43694,89.7453211 C198.43694,89.7453211 198.373955,89.7716046 198.3106,89.8110299 L198.3106,94.4876199 C198.3106,94.6306774 198.196117,94.735436 198.069777,94.735436 C197.93047,94.735436 197.828954,94.6306774 197.828954,94.4876199 L197.828954,89.720164 L197.828954,89.6540797 L197.828954,89.1591985 C197.828954,89.0296582 197.93047,88.9113824 198.069777,88.9113824 C198.196117,88.9113824 198.3106,89.0296582 198.3106,89.1591985 L198.3106,89.2639571 C198.792247,89.0296582 199.336878,88.9113824 199.983026,88.9113824 C200.729949,88.9113824 201.287918,89.1070069 201.630257,89.4982559 C201.92258,89.8373134 202.075595,90.3581027 202.075595,91.0227004" id="Fill-139" fill="#1B1B19"></path>
                                <path d="M202.075595,91.0227004 L202.075595,94.4876199 C202.075595,94.6306774 201.972226,94.735436 201.846257,94.735436 C201.70658,94.735436 201.605063,94.6306774 201.605063,94.4876199 L201.605063,91.0227004 C201.605063,90.4880184 201.49058,90.0843785 201.263465,89.8373134 C201.022271,89.550823 200.590642,89.40739 199.983026,89.40739 C199.375039,89.40739 198.866717,89.5110222 198.43694,89.7453211 C198.43694,89.7453211 198.373955,89.7716046 198.3106,89.8110299 L198.3106,94.4876199 C198.3106,94.6306774 198.196117,94.735436 198.069777,94.735436 C197.93047,94.735436 197.828954,94.6306774 197.828954,94.4876199 L197.828954,89.720164 L197.828954,89.6540797 L197.828954,89.1591985 C197.828954,89.0296582 197.93047,88.9113824 198.069777,88.9113824 C198.196117,88.9113824 198.3106,89.0296582 198.3106,89.1591985 L198.3106,89.2639571 C198.792247,89.0296582 199.336878,88.9113824 199.983026,88.9113824 C200.729949,88.9113824 201.287918,89.1070069 201.630257,89.4982559 C201.92258,89.8373134 202.075595,90.3581027 202.075595,91.0227004 L202.075595,91.0227004 L202.075595,91.0227004 Z" id="Stroke-141" stroke="#1D1C1B" stroke-width="0.66"></path>
                                <path d="M208.628398,93.7841602 L208.628398,89.8761755 C208.589866,89.849892 208.551705,89.8236084 208.48872,89.7849341 L208.412398,89.7451333 C207.98225,89.5243517 207.462813,89.4199686 206.828151,89.4199686 C206.182003,89.4199686 205.738889,89.5634015 205.471389,89.849892 C205.243904,90.0980835 205.12942,90.4882061 205.12942,91.0228881 L205.12942,92.637823 C205.12942,93.1721295 205.243904,93.5626276 205.471389,93.8104437 C205.738889,94.0969341 206.182003,94.240367 206.828151,94.240367 C207.435767,94.240367 207.955945,94.1232176 208.425736,93.9013096 C208.437221,93.9013096 208.538367,93.849118 208.628398,93.7841602 M209.110045,89.1593862 L209.110045,94.3053249 C209.110045,96.3899839 207.779959,97.7315701 205.738889,97.7315701 C205.599211,97.7315701 205.498065,97.6275625 205.498065,97.4841295 C205.498065,97.3538383 205.599211,97.2363134 205.738889,97.2363134 C207.512089,97.2363134 208.61506,96.1286506 208.628398,94.3439992 C208.10859,94.6045816 207.500604,94.7352483 206.828151,94.7352483 C206.042696,94.7352483 205.471389,94.5396238 205.12942,94.1495011 C204.811904,93.8104437 204.647774,93.3020452 204.647774,92.637823 L204.647774,91.0228881 C204.647774,90.3582904 204.811904,89.849892 205.12942,89.5108345 C205.471389,89.1207119 206.042696,88.9254628 206.828151,88.9254628 C207.525427,88.9254628 208.10859,89.0546276 208.628398,89.3024437 L208.628398,89.1593862 C208.628398,89.029846 208.743252,88.9111946 208.868851,88.9111946 C208.99519,88.9111946 209.110045,89.029846 209.110045,89.1593862" id="Fill-143" fill="#1B1B19"></path>
                                <path d="M208.628398,93.7841602 L208.628398,89.8761755 C208.589866,89.849892 208.551705,89.8236084 208.48872,89.7849341 L208.412398,89.7451333 C207.98225,89.5243517 207.462813,89.4199686 206.828151,89.4199686 C206.182003,89.4199686 205.738889,89.5634015 205.471389,89.849892 C205.243904,90.0980835 205.12942,90.4882061 205.12942,91.0228881 L205.12942,92.637823 C205.12942,93.1721295 205.243904,93.5626276 205.471389,93.8104437 C205.738889,94.0969341 206.182003,94.240367 206.828151,94.240367 C207.435767,94.240367 207.955945,94.1232176 208.425736,93.9013096 C208.437221,93.9013096 208.538367,93.849118 208.628398,93.7841602 L208.628398,93.7841602 L208.628398,93.7841602 Z M209.110045,89.1593862 L209.110045,94.3053249 C209.110045,96.3899839 207.779959,97.7315701 205.738889,97.7315701 C205.599211,97.7315701 205.498065,97.6275625 205.498065,97.4841295 C205.498065,97.3538383 205.599211,97.2363134 205.738889,97.2363134 C207.512089,97.2363134 208.61506,96.1286506 208.628398,94.3439992 C208.10859,94.6045816 207.500604,94.7352483 206.828151,94.7352483 C206.042696,94.7352483 205.471389,94.5396238 205.12942,94.1495011 C204.811904,93.8104437 204.647774,93.3020452 204.647774,92.637823 L204.647774,91.0228881 C204.647774,90.3582904 204.811904,89.849892 205.12942,89.5108345 C205.471389,89.1207119 206.042696,88.9254628 206.828151,88.9254628 C207.525427,88.9254628 208.10859,89.0546276 208.628398,89.3024437 L208.628398,89.1593862 C208.628398,89.029846 208.743252,88.9111946 208.868851,88.9111946 C208.99519,88.9111946 209.110045,89.029846 209.110045,89.1593862 L209.110045,89.1593862 L209.110045,89.1593862 Z" id="Stroke-145" stroke="#1D1C1B" stroke-width="0.66"></path>
                                <path d="M215.245964,91.0227004 C215.245964,90.4756276 215.13148,90.0978958 214.903995,89.8373134 C214.636495,89.550823 214.19301,89.40739 213.572056,89.40739 C213.014087,89.4336736 212.622471,89.576731 212.381648,89.8373134 C212.15194,90.0843785 212.039679,90.4756276 212.039679,91.0091831 L212.039679,91.4650146 L215.245964,91.4650146 L215.245964,91.0227004 L215.245964,91.0227004 Z M215.727981,91.0227004 L215.727981,91.7128307 C215.727981,91.8427464 215.613127,91.9598958 215.486787,91.9598958 L212.039679,91.9598958 L212.039679,92.6380107 C212.039679,93.1723172 212.15194,93.5628153 212.381648,93.8106314 C212.646924,94.0971218 213.09078,94.2401793 213.725072,94.2401793 C214.28267,94.2401793 214.75135,94.1617042 215.119995,94.0186467 C215.245964,93.9664552 215.385641,94.0186467 215.435288,94.1493134 C215.486787,94.2792291 215.423802,94.4226621 215.295981,94.4744782 C214.865833,94.6441946 214.346025,94.735436 213.725072,94.735436 C212.951103,94.735436 212.381648,94.539436 212.039679,94.1493134 C211.722163,93.8106314 211.558032,93.3153747 211.558032,92.6380107 L211.558032,91.0091831 C211.558032,90.3445854 211.722163,89.8500797 212.039679,89.4982559 C212.356454,89.1468077 212.876262,88.9511831 213.560571,88.9113824 L213.560571,88.9252751 L213.560571,88.9113824 C214.332687,88.9113824 214.903995,89.1208996 215.245964,89.5110222 C215.574965,89.8500797 215.727981,90.3445854 215.727981,91.0227004 L215.727981,91.0227004 L215.727981,91.0227004 Z" id="Fill-147" fill="#1B1B19"></path>
                                <path d="M215.245964,91.0227004 C215.245964,90.4756276 215.13148,90.0978958 214.903995,89.8373134 C214.636495,89.550823 214.19301,89.40739 213.572056,89.40739 C213.014087,89.4336736 212.622471,89.576731 212.381648,89.8373134 C212.15194,90.0843785 212.039679,90.4756276 212.039679,91.0091831 L212.039679,91.4650146 L215.245964,91.4650146 L215.245964,91.0227004 L215.245964,91.0227004 L215.245964,91.0227004 Z M215.727981,91.0227004 L215.727981,91.7128307 C215.727981,91.8427464 215.613127,91.9598958 215.486787,91.9598958 L212.039679,91.9598958 L212.039679,92.6380107 C212.039679,93.1723172 212.15194,93.5628153 212.381648,93.8106314 C212.646924,94.0971218 213.09078,94.2401793 213.725072,94.2401793 C214.28267,94.2401793 214.75135,94.1617042 215.119995,94.0186467 C215.245964,93.9664552 215.385641,94.0186467 215.435288,94.1493134 C215.486787,94.2792291 215.423802,94.4226621 215.295981,94.4744782 C214.865833,94.6441946 214.346025,94.735436 213.725072,94.735436 C212.951103,94.735436 212.381648,94.539436 212.039679,94.1493134 C211.722163,93.8106314 211.558032,93.3153747 211.558032,92.6380107 L211.558032,91.0091831 C211.558032,90.3445854 211.722163,89.8500797 212.039679,89.4982559 C212.356454,89.1468077 212.876262,88.9511831 213.560571,88.9113824 L213.560571,88.9252751 L213.560571,88.9113824 C214.332687,88.9113824 214.903995,89.1208996 215.245964,89.5110222 C215.574965,89.8500797 215.727981,90.3445854 215.727981,91.0227004 L215.727981,91.0227004 L215.727981,91.0227004 Z" id="Stroke-149" stroke="#1D1C1B" stroke-width="0.66"></path>
                                <path d="M115.87307,3.75478926e-05 L99.7786621,6.6381295 C99.7786621,6.6381295 88.8378731,27.6747119 88.9338319,28.3021372 C89.0290497,28.9295625 89.0290497,27.868459 91.3605901,26.711233 C93.6921304,25.5540069 112.377798,18.5130261 112.504137,17.2589264 C112.632329,16.0048268 114.533722,5.3945433 115.105029,2.8874705 C115.676336,0.380397701 115.87307,3.75478926e-05 115.87307,3.75478926e-05" id="Fill-151" fill="#D3007E"></path>
                            </g>
                        </g>
                    </g>
                </g>
            </g>
            <text id="Powered-by-HEC-Lige" font-family="ArialMT, Arial" font-size="11" font-weight="normal" fill="#000000">
                <tspan x="50.8300781" y="112">Powered by HEC Lige</tspan>
            </text>
        </g>
    </g>
</svg>